<svg clip-rule="evenodd" fill-rule="evenodd" stroke-linejoin="round" stroke-miterlimit="2" viewBox="0 0 362 46" xmlns="http://www.w3.org/2000/svg"><g fill-rule="nonzero" transform="matrix(.1 0 0 -.1 -1 46)"><path d="m112.246 460-16.788-80.311 279.249.117-20.404-90.331-275.058-1.176s-69.245-275.299-69.245-278.299c0-2 383.456-1.116 383.456-1.116l21.544 86.116-289.491 2.092 29.365 107.166s281.126-1.258 283.126.742c6 6 62 255 62 255z"/><path d="m616 460-16-71 288 1-27.725-111.617-279.477.38-60.798-268.763h93.028l39.407 172.384 281.565.616 68 277z"/><path d="m1115 460s-95-448.311-95-451.311 395 1.311 395 1.311l57 286-179.4-1.809-18.75-86.614 83.04-1.053-22.89-98.524-186-3 63 285h276l21 70z"/><path d="m1695 460-176-450h249l6.25 95.797-123.25 1.203 113 283h89l-15-380h102l13 450z"/><path d="m2132 460s-68-366-87-450h95l56 280 50.02-65.84 174.72 3.313 72.26 61.527-60.11-280.311 102.11 1.311 95 450h-106l-139-149-70-1-68 150z"/></g><circle cx="224.5" cy="34.5" r="2.5" transform="matrix(.629865 .203286 -.245716 .76133 90.4254 -37.9512)"/><circle cx="224.5" cy="34.5" r="2.5" transform="matrix(.629865 .203286 -.245716 .76133 104.528 -37.9512)"/><path d="m2742 460-14-75 375 3 17 72z" fill-rule="nonzero" transform="matrix(.1 0 0 -.1 -1 46)"/><path d="m3230 460-45-251 294 1-25-105-285.13-.461-28.87-94.539h389l61 291-280-1 11.22 85 291.78 3 15 72z" fill-rule="nonzero" transform="matrix(.1 0 0 -.1 -1 46)"/><path d="m3045.35 282.673-330.06.423-67.29-273.096h376l16.19 82.705-280.19 3.295 27.54 107.544 244.56-3.456z" fill-rule="nonzero" transform="matrix(.1 0 0 -.1 -1 46)"/></svg>