<?xml version="1.0" encoding="UTF-8"?>
<svg xmlns="http://www.w3.org/2000/svg" clip-rule="evenodd" fill-rule="evenodd" stroke-linejoin="round" stroke-miterlimit="2" viewBox="0 0 43 35">
  <path d="m403.832 4017.73c-1.545.69-3.205 1.16-4.947 1.36 1.778-1.06 3.143-2.75 3.786-4.76-1.664.98-3.508 1.7-5.47 2.09-1.573-1.68-3.813-2.72-6.289-2.72-4.759 0-8.619 3.85-8.619 8.61 0 .68.076 1.33.225 1.97-7.162-.36-13.513-3.8-17.761-9.01-.741 1.28-1.168 2.76-1.168 4.34 0 2.98 1.523 5.62 3.836 7.17-1.413-.04-2.743-.44-3.905-1.08v.11c0 4.17 2.97 7.65 6.913 8.45-.725.19-1.485.3-2.27.3-.557 0-1.097-.05-1.623-.16 1.096 3.43 4.28 5.92 8.051 5.99-2.951 2.31-6.664 3.69-10.703 3.69-.695 0-1.381-.04-2.057-.12 3.816 2.44 8.346 3.87 13.21 3.87 15.849 0 24.517-13.13 24.517-24.52 0-.37-.008-.74-.023-1.11 1.682-1.22 3.142-2.73 4.297-4.47z" fill-rule="nonzero" transform="translate(-361.831 -4013.69)"></path>
</svg>
