<?xml version="1.0" encoding="UTF-8"?>
<svg xmlns="http://www.w3.org/2000/svg" clip-rule="evenodd" fill-rule="evenodd" stroke-linejoin="round" stroke-miterlimit="2" viewBox="0 0 43 43">
  <path d="m293.895 4009.43c-11.101 0-20.193 8.64-21.056 19.61l11.324 4.72c.961-.66 2.12-1.04 3.367-1.04h.333l5.038-7.36v-.11c0-4.43 3.573-8.04 7.967-8.04s7.968 3.61 7.968 8.04c0 4.44-3.574 8.05-7.968 8.05-.062 0-.121 0-.181 0l-7.185 5.17c.005.09.008.19.008.28 0 3.33-2.683 6.04-5.98 6.04-2.895 0-5.316-2.09-5.865-4.85l-8.1-3.38c2.508 8.95 10.658 15.51 20.328 15.51 11.67 0 21.128-9.54 21.128-21.32.003-11.78-9.456-21.32-21.126-21.32zm-7.815 32.35-2.595-1.08c.458.96 1.254 1.77 2.312 2.22 2.282.96 4.916-.14 5.867-2.44.461-1.12.465-2.35.008-3.47-.455-1.12-1.317-1.99-2.423-2.45-1.098-.46-2.276-.45-3.309-.06l2.681 1.13c1.684.7 2.483 2.65 1.779 4.36-.7 1.69-2.637 2.5-4.32 1.79zm20.097-16.53c0-2.95-2.382-5.35-5.309-5.35-2.928 0-5.311 2.4-5.311 5.35 0 2.96 2.383 5.36 5.311 5.36 2.927 0 5.309-2.4 5.309-5.36zm-9.288-.01c0-2.22 1.785-4.02 3.987-4.02 2.204 0 3.99 1.81 3.99 4.02 0 2.23-1.786 4.03-3.99 4.03-2.202 0-3.987-1.8-3.987-4.03z" fill-rule="nonzero" transform="translate(-272.839 -4009.43)"></path>
</svg>
