<?xml version="1.0" encoding="UTF-8"?>
<svg xmlns="http://www.w3.org/2000/svg" clip-rule="evenodd" fill-rule="evenodd" stroke-linejoin="round" stroke-miterlimit="2" viewBox="0 0 45 32">
  <path d="m670.892 4020.05c-.512-1.92-2.02-3.43-3.934-3.94-3.47-.93-17.385-.93-17.385-.93s-13.914 0-17.385.93c-1.914.51-3.421 2.02-3.933 3.94-.93 3.47-.93 10.71-.93 10.71s0 7.24.93 10.71c.512 1.91 2.019 3.42 3.933 3.93 3.471.93 17.385.93 17.385.93s13.915 0 17.385-.93c1.914-.51 3.422-2.02 3.934-3.93.93-3.47.93-10.71.93-10.71s0-7.24-.93-10.71m-25.769 17.38v-13.35l11.561 6.68z" fill-rule="nonzero" transform="translate(-627.325 -4015.18)"></path>
</svg>
