<?xml version="1.0" encoding="UTF-8"?>
<svg xmlns="http://www.w3.org/2000/svg" clip-rule="evenodd" fill-rule="evenodd" stroke-linejoin="round" stroke-miterlimit="2" viewBox="0 0 47 34">
  <path d="m745.148 4028.76c-2.264 0-4.052 1.99-4.052 4.41s1.828 4.41 4.052 4.41c2.264 0 4.052-1.99 4.052-4.41s-1.788-4.41-4.052-4.41zm-14.499 0c-2.264 0-4.052 1.99-4.052 4.41s1.828 4.41 4.052 4.41c2.264 0 4.052-1.99 4.052-4.41.04-2.42-1.788-4.41-4.052-4.41zm18.472 18.55s-1.431-1.7-2.622-3.21c5.204-1.47 7.19-4.73 7.19-4.73-1.629 1.07-3.178 1.83-4.568 2.34-1.987.84-3.894 1.39-5.76 1.71-3.814.72-7.309.52-10.289-.04-2.264-.44-4.211-1.07-5.839-1.71-.913-.35-1.906-.79-2.9-1.35-.119-.08-.238-.12-.357-.2-.08-.04-.119-.08-.159-.12-.715-.39-1.113-.67-1.113-.67s1.907 3.18 6.952 4.69c-1.192 1.51-2.661 3.29-2.661 3.29-8.779-.27-12.116-6.04-12.116-6.04 0-12.79 5.72-23.15 5.72-23.15 5.721-4.29 11.163-4.17 11.163-4.17l.397.47c-7.151 2.07-10.448 5.21-10.448 5.21s.874-.48 2.344-1.16c4.251-1.86 7.627-2.38 9.017-2.5.239-.04.437-.08.676-.08 2.423-.31 5.163-.4 8.023-.08 3.774.44 7.826 1.55 11.957 3.82 0 0-3.138-2.98-9.89-5.05l.555-.63s5.442-.12 11.163 4.17c0 0 5.72 10.36 5.72 23.15 0 0-3.377 5.77-12.155 6.04z" fill-rule="nonzero" transform="translate(-714.879 -4013.94)"></path>
</svg>
