<svg clip-rule="evenodd" fill-rule="evenodd" stroke-linejoin="round" stroke-miterlimit="2" viewBox="0 0 211 118" xmlns="http://www.w3.org/2000/svg"><path d="m0-16.96.12 1.64c-.82.89-1.81 1.31-2.95 1.25-.08-1.41 1.72-2.32 2.83-2.89m6.82-5.31c.55.33 1.64.98 2.19 1.31-2.49 1.61-5.03 3.13-7.41 4.89-.37-.55-.73-1.1-1.1-1.64 2.23-1.35 4.11-3.19 6.32-4.56m-2.57-4.23c.07-2.9.08-5.81.2-8.71 5.31-.24 10.63-.25 15.95-.09-4.19 3.99-8.92 7.4-13.53 10.89-.88-.69-1.75-1.39-2.62-2.09m-2.62-15.19c-.4-.62-1.2-1.87-1.6-2.5 2.67-1.57 5.18.7 7.58 1.66 3.49 1.89 7.35 3.12 10.58 5.47-4.47.23-8.98.39-13.45 0-1.48-1.17-2.09-3.1-3.11-4.63m1.57 14.96c-3.08.79-6.18 1.59-9.35 1.92-2.34-1.12-3.98-3.28-5.83-5.04 3.93-3.94 10.15-3.63 15.24-4.96.05 2.69.02 5.39-.06 8.08m-4.86-15.55c.4.01 1.2.01 1.6.02.31.55.91 1.65 1.22 2.21.6 1.16 1.19 2.33 1.77 3.51-3.63.93-7.25 2.08-11.01 2.31 2.07-2.73 4.38-5.28 6.42-8.05m-5.03 2.12.93-.25c2.2 1.12-1.63 2.41-.93.25m-1.2-9.46c2.83.98 5.53 2.29 8.13 3.78-1.76 1.08-3.58 2.09-5.46 2.95-1.07-2.17-2.12-4.36-2.67-6.73m31.33 14.41c1.12 1.11 6.12 1.81 3.53 3.73-5.14 3.17-10.43 6.08-15.6 9.2-1.1.76-2.33-.47-3.43-.66 4.79-4.5 10.08-8.54 15.5-12.27m23.79-8.63c-5.23 4.19-11.41 7.08-17.19 10.45-1.57-.81-3.14-1.62-4.7-2.46 7.25-2.77 14.46-5.76 21.89-7.99m9.6-3.06c-.33 2.15-1 4.21-1.72 6.25-.39.97-.77 1.94-1.13 2.92-.35.99-.68 1.98-1 2.98-.48 1.29-.93 2.6-1.43 3.89-.11.54-.34 1.61-.45 2.15-.43 1.23-.82 2.47-1.16 3.73-1.1.03-2.22.02-3.2-.56-4.89-2.39-9.85-4.63-14.69-7.13 8.29-4.69 16.29-9.91 24.78-14.23m.63 1.51.58.06c.77-4.23 5.04.27 7.14 1.3.14.79.43 2.36.58 3.15.5 1.51.66 3.09.86 4.66l.66-.16c.01 1.37.04 2.74.07 4.11l.91-.06c-.01.88-.02 2.65-.02 3.54-5.76 1.45-11.41 3.32-17.24 4.44.25-.86.77-2.58 1.03-3.44.35-.96.7-1.93 1.07-2.89 1.2-3.88 2.96-7.61 3.57-11.65l.65.11c.03-.79.1-2.38.14-3.17m11.56 7.9c.67 1.18 1.37 2.35 2.06 3.53.4.61 1.21 1.83 1.62 2.44-.78.42-2.32 1.25-3.1 1.66-.8-2.49-1.38-5.05-1.55-7.67.24.01.73.03.97.04m14.11 13.37c.43 1.61 1.01 3.18 1.48 4.78l.72-.04c.07 1.35.13 2.71.19 4.07-2.05-2.83-3.83-5.85-5.48-8.93-2.97-1.56-6.09-2.81-9.08-4.32.85-.56 1.71-1.11 2.57-1.65 3.26 1.93 7.12 3.1 9.6 6.09m-6.83 8.19c-2.78-.22-5.55-.58-8.31-.94 3.79-2.15 7.52-4.94 11.89-5.65.29.63.85 1.91 1.14 2.54.67 1.02 1.33 2.04 2 3.06 1.22 2.1 2.47 4.19 3.58 6.35-3.85-1.06-6.1-5.42-10.3-5.36m-13.28-1.9c-3.51-1.63-7.02-3.27-10.46-5.04 5.41-1.68 10.9-3.1 16.4-4.48 3.04.48 5.74 2.28 8.52 3.56-3.42 2.01-7.03 3.66-10.53 5.5-1.22.62-2.63 1.47-3.93.46m-43.26 1.89c-2.24.97-3.83-1.25-5.48-2.35-.78-.86-2.32-1.38-2.25-2.72 6.18-3.54 12.25-7.28 18.52-10.65 5.54 2.91 11.33 5.34 16.91 8.2-9.14 2.85-18.49 4.94-27.7 7.52m-24.51 5.92c4.42-3.86 9.76-6.57 14.72-9.7 2.23 1.17 4.01 3 5.85 4.67-6.78 1.94-13.63 3.76-20.57 5.03m54.61-12.32c4.71 2 9.12 4.66 13.9 6.49 4.6 1.02 9.38.73 14.02 1.5 4.82 2.79 8.9 6.72 13.76 9.47-.59-1.63-1.22-3.24-1.86-4.85-.66-1.66-1.32-3.32-1.98-4.99-1-2.65-1.99-5.3-3.04-7.93-.51-1.57-.74-3.58-2.33-4.46-3.92-2.45-9.03-3.79-10.69-8.65-1.18-2.07-2.41-4.12-3.51-6.24-.66-1.02-1.33-2.03-2.01-3.04 4.39-4.08 8.71-8.29 13.43-11.98-.55-.34-1.1-.69-1.64-1.04-3.84 4.44-8.65 7.92-12.94 11.91-1.33-1.06-4.1-1.19-4.1-3.3 6.08-3.65 12.33-7 18.45-10.58.44.64.89 1.28 1.33 1.92 3.02-3.55 6.96-6.16 10.07-9.62-6.99 2.98-13.31 7.31-20.02 10.86-5.65 2.88-10.82 6.75-16.9 8.72-9.05 3.37-18.14 6.64-27.14 10.14-1.5.4-3.16 1.65-4.7.66-10.99-5.17-21.85-10.65-32.95-15.57.88 2.19 1.89 4.32 2.66 6.56l.81.1c-.08.47-.24 1.41-.32 1.88l1.33.08c.83 4.54-6.3 3.83-6.4 8.2l1.61-.18c.86-1.3 1.94-2.41 3.23-3.33.52.58 1.04 1.15 1.58 1.72-1.15 1.15-2.23 2.35-3.31 3.55-.88-.08-1.76-.18-2.63-.26-.02 1.79.11 3.73-1.29 5.11 2.11 2.18 4.22 4.38 6.6 6.28 3.71 0 7.2-1.77 10.91-1.71.48.42 1.45 1.26 1.94 1.68-7 5.7-14.1 11.28-20.84 17.27 21.71-5.21 43.36-10.72 64.97-16.37m33.97 57.52c-2.81 5.65-8.45 10.05-14.93 10.12-5.57.21-10.36-3.25-13.97-7.15 1.15-1.95 2.45-3.81 3.66-5.71-2.26-.5-3.57 2.04-5.66 1.95-1.5-1.66-1.61-4.1-2.38-6.14-1.96-9.72 7.52-19.47 17.26-17.56 7.26 1.45 13.35 6.69 16.14 13.52.76 3.61.93 7.4-.12 10.97m-111.45 1.45c-.42.37-1.27 1.1-1.7 1.47-.72-1.55-1.21-3.21-1.07-4.93.66-2.29.38-4.66.18-6.98.51-6.21.1-12.45.35-18.67.6-.08 1.81-.24 2.41-.33-.09 9.81.29 19.65-.17 29.44m115.83-14.56c-1.03-3.4-2.09-7.01-4.79-9.5-6.04-6.5-16.32-7.31-24.16-3.87-5.65 2.49-9.59 7.59-11.76 13.25-1.5 4.78-1.81 10.07-.07 14.84-9.38 2.89-20.09-2.41-23.44-11.64-.35-1.02-.71-2.05-1.07-3.07-.64-2.25-.74-4.61-.79-6.93 2.45-1.7 4.79-3.76 7.77-4.46 1.15-.45 3.26-.33 2.56-2.12-2.48-.33-5-.1-7.5-.2.45-2.3 2.55-3.64 4.36-4.86 5.34-3.24 12.39-3.57 17.97-.71 2.39 1.16 4.12 3.48 6.86 3.92-.61-1.89-1.11-3.83-2.07-5.58-11.06-6.43-28.24-2.6-32.97 10.12-.97 4.63-5.73 6.44-8.97 9.24-2.9 1.95-5.19 5.02-8.73 5.85-.15-4.69.01-9.38.13-14.06-.18-2.32 3.75-1.37 3.82-3.49-4.55-.63-9.51-.94-13.97.37 1.26.68 2.56 1.26 3.91 1.73.24 1.8.5 3.59.82 5.38-.12.45-.37 1.37-.49 1.82.39 1.98.45 3.99.48 6-.03 1.71-.1 3.41-.43 5.09.55 2.56 1.17 7.61-2.78 7.37-4.79-.2-9.86.85-14.43-.98-.34-5.07-.34-10.15-.13-15.22 4.99.28 10.35-1.1 15.01 1.21-.01-1.76-.02-3.51-.04-5.26-4.64 2.33-9.98 1.12-14.97 1.41-.19-5.3-.12-10.62.02-15.93 4.89.15 10.05-.92 14.77.68-.02 1.81.75 2.97 2.32 3.49.06-2.37.06-4.75.11-7.12-8.86.03-17.73-.29-26.57.23 1.7 1.78 4.27 2.77 3.63 5.75-3.12.85-7.22-1.25-9.6 1.37 1.35.61 2.7 1.21 4.05 1.82.01 9.6.02 19.19.13 28.79-.45-.03-1.34-.1-1.79-.13-9.61-10.77-19.6-21.19-29.45-31.74-3.16.55-7.66-1.7-9.71 1.43 1.8.73 3.93.7 5.51 1.91.55 1.27.92 2.61 1.38 3.92.14 10.51-.16 21.03.05 31.54l-.63-.03c-.03.68-.1 2.05-.13 2.73-.88.51-4.48.71-2.8 2.61 3.28.32 6.63.39 9.9-.12.53-1.98-1.96-2-3.15-2.75-.21-10.35-.23-20.72-.11-31.07 2.12 1.35 3.8 3.25 5.49 5.08 8.85 9.96 18.32 19.34 27.08 29.39.37.13 1.1.39 1.46.51-.09-3.04-.27-6.08-.74-9.09.26-.41.78-1.24 1.04-1.66 8.5.44 17.07-.34 25.54.45-.06 1.76-.14 3.52-.27 5.27-.6 1.92-2.71 2.16-4.25 2.97 1.57 1.8 4.12 1.03 6.21 1.2 2.67-.2 5.71.66 7.97-1.15-1.4-.6-2.81-1.16-4.22-1.72-.2-5.05-.35-10.1-.19-15.15 1.04.34 2.13.63 2.97 1.38 5.88 4.73 11.88 9.31 17.92 13.85-.03.68-.1 2.04-.13 2.72 4.7-.2 9.44.37 14.11-.17.19-.33.57-.98.76-1.3-2.48-.81-5.02-1.57-7.19-3.06-8.17-5.41-15.55-11.91-23.61-17.49 3.59-2.6 6.95-5.58 10.87-7.7.05 6.34 2.76 12.84 7.94 16.65 6.69 4.48 15.21 4.47 22.89 3.46 2.56 1.53 3.85 4.63 6.46 6.22 6.79 4.56 16.22 4.23 23.21.24 8.03-4.91 11.62-14.83 10.62-23.93m45.4 24.16c-.19-1.41-.37-2.81-.54-4.21-.65-2.95-.76-5.97-.96-8.97-.88-5.95-1.47-11.96-2-17.96-1.02-3.63-.47-7.49-1.56-11.09.92-1.88 2.74-2.91 4.45-3.97-2.49-1.68-5.57-.8-8.36-.93-.13.55-.39 1.66-.53 2.21-.38 1-.75 1.99-1.1 3-.8 2.27-1.55 4.56-2.34 6.84-.33.99-.66 1.97-1.01 2.95-.69 1.97-1.37 3.95-2.11 5.9-.49 1.43-1.01 2.86-1.48 4.3-.46 1.28-.89 2.59-1.34 3.88-.75 2.61-1.67 5.18-2.5 7.77-.43-.01-1.28-.02-1.71-.02-.5-1.62-1.04-3.23-1.51-4.85-.46-1.27-.87-2.55-1.32-3.81-.31-1.02-.64-2.03-.98-3.04-.35-.99-.71-1.98-1.08-2.96-.34-.99-.68-1.97-1.04-2.94-.64-1.97-1.32-3.93-2-5.89-.8-2.49-1.68-4.95-2.53-7.43-.44-1.29-.82-2.59-1.17-3.9-.26-.48-.77-1.45-1.02-1.93-3.05-.02-6.43-.81-9.17.9 2.57 1.12 4.97 2.88 5.33 5.87-1.99 11.89-2.45 24.03-4.44 35.94-.15 1.54-.28 3.08-.41 4.63-1.08.55-2.15 1.11-3.22 1.68 2 2.18 6.79 2.31 8.83.05-.86-.53-1.72-1.06-2.57-1.58.62-6.08 1-12.18 1.91-18.22.23-3.33.25-6.7 1.04-9.96.08-1.59.17-3.17.26-4.75.42-.01 1.24-.02 1.66-.03.74 2.56 1.62 5.07 2.48 7.59.37.98.73 1.98 1.07 2.99.36.99.71 1.98 1.06 2.98.7 1.98 1.37 3.98 1.96 6 .47 1.27.92 2.55 1.41 3.82.34.98.69 1.96 1.06 2.93.15.53.45 1.57.6 2.09.37 1.01.72 2.01 1.06 3.03.86 1.32.69 5.63 2.98 4.1.79-2.31 1.44-4.66 2.28-6.95.33-1.01.67-2.03 1.02-3.03.31-1 .64-1.98.99-2.96 1.26-3.73 2.58-7.45 3.91-11.16.31-.98.64-1.95.98-2.92 1.21-3.1 1.35-6.94 4.08-9.18 1.5 10.33 2.25 20.75 3.39 31.12.66 2.17-1.24 3.59-2.24 5.23 3.82.27 7.66.29 11.48.06-.43-1.56-1.89-2.31-3.05-3.22" fill-rule="nonzero" transform="translate(73.75 67.73)"/></svg>