<svg clip-rule="evenodd" fill-rule="evenodd" stroke-linejoin="round" stroke-miterlimit="2" viewBox="0 0 1682 419" xmlns="http://www.w3.org/2000/svg"><path d="m0 203.5c.47-.32 1.41-.96 1.89-1.28-.83-.99-1.64-1.98-2.42-2.98-2.5.26-4.94.76-7.42 1-2.54.13-4.63-1.79-7.111-1.71-4.239.31-8.46-.35-12.689-.21-1.7 2.03-3.83 5.75-1.26 7.91 1.65-.54 3.19-1.46 4.92-1.86 8.029-.21 16.029-1.07 24.09-.87m-16.87-7.21c4.2 1.2 8.84 1.76 13.05.24-2.741-2.24-5.39-4.62-8.451-6.4-.329-.49-1-1.46-1.339-1.94-2.01.01-3.83.68-5.29 2.05.24 2.12-.29 4.87 2.03 6.05m-87.56 5.54c-4.17-.09-8.41-.38-12.21-2.25.119-1.03.36-3.1.47-4.13.73-.07 2.17-.21 2.89-.28-.16-4.02-3.67-5.92-7.14-6.7-1.27 2.63-1.96 5.5-3.51 7.99-2.47 6.2-7.39 10.83-11.83 15.62.449.35 1.34 1.05 1.79 1.4 5.02-1.76 8.77-5.65 12.38-9.38 1.83-.3 3.66-.07 5.47.39-2.33 3.5-4.82 6.98-6.11 11.03-5.37 2.14-9.84 5.96-14.84 8.78.84 1.18 1.37 2.92 3.02 3.25 1.98-.35 3.84-1.17 5.739-1.85 2.621-3.62 6.171-6.42 9.641-9.17 3.42-2.94 5.34-7.13 7.85-10.79 1.23.19 2.48.43 3.73.71-.79 2.92-1.28 5.99-2.79 8.65-1.78 2.56-4.71 4.05-6.36 6.73-1.571 2.43-4.3 3.67-6.34 5.63-3.6 3.26-7.63 5.98-11.9 8.26 1.419 2.23 4.01 2.49 6.419 2.82 4.331-3.34 8.071-7.67 13.081-9.99.97-1.94 1.9-3.91 2.459-6.02 2.031-4.23 4.561-8.22 7.46-11.9 1.451.02 2.75-.44 3.79-1.49.611-.06 1.841-.17 2.451-.22 1.02.49 2.049.98 3.1 1.47-.7 4.9-3.75 8.95-5.75 13.37-1.15 2.57-2.79 4.94-5.091 6.61-.649 3.01-4.009 3.38-6.439 4.22-2.8.27-5.46-.95-8.2-1.28 1.4 2.58 3.179 4.95 5.24 7.05 3.41.03 7.2 1.15 10.28-.85 6.06-2.77 7.74-9.81 11.25-14.89 2.43-3.04 2.65-7.06 4.55-10.37.93-1.99 2.859-4.21 1.22-6.37-2.93-6.18-10.91-2.85-15.77-6.05m94.42 31.19c-2.53.08-5.5 2.82-7.59.63-1.84-1.25-.51-3.6-.36-5.33 3.43-.91 6.939-.5 10.22.81-.49 1.48.01 4.04-2.27 3.89m4-9.74c-5.86.74-11.9-.33-17.66.33-2.21 3.03-.45 7.32-.891 10.84.631.41 1.901 1.24 2.531 1.65-.39.81-1.17 2.41-1.56 3.22 1.9 2.64 4.48.92 6.74-.19 4.39-.88 9.13 1.13 13.45-.32 1.22-4.47 1.51-9.14 1.25-13.74-.31-1.8-2.39-2.16-3.86-1.79m-125.07-7.18c-2.08-1.19-4.59-.41-6.84-.81-1.93-2.15-1.37-5.17-1.54-7.79 3.08.53 6.42.34 8.63-2.2-2.33-2.07-5.4-2.31-8.34-2.09-.23-.53-.68-1.59-.91-2.12.45-3 1.059-5.99 1.269-9.02-.409-2.45-2.919-3.81-5.199-3.94-2.63.74-2.86 3.91-3.7 6.05.39 3.08.85 6.14 1.28 9.22-2.131.01-4.26.01-6.36-.01.46-.61 1.37-1.83 1.83-2.44.97-3.61-.92-8-5.2-7.53-2.29 4.21-2.34 9.16-4.02 13.59-1.41 2.8-3.74 5-5.32 7.69 4.78.6 7.66-3.46 10.81-6.24 2.49-.65 5.15-.42 7.72-.7-.051 2.91.71 5.8.39 8.7-5.75 1.74-11.99 1.24-17.66 3.33-2.54 1.91-.24 8.01 3.15 6.68 5.069-.52 8.55-5.77 13.93-4.95 1.02 5.04 1.41 10.27 1.46 15.44.6-.12 1.79-.36 2.389-.48-.439.95-.869 1.9-1.279 2.86.79.77 1.62 1.52 2.49 2.23 4.39-1.45 2.35-7.02 3.23-10.46-1.12-3.61-1.73-7.52.94-10.63 2.43-.91 7.05-.72 6.85-4.38m-215.8-105.98c-1.49-6.54-1.29-13.56.37-20.05-.04 6.68.26 13.38-.37 20.05m-50.99 2.39c-.89-1.21-.651-1.92.72-2.11.85 1.2.6 1.9-.72 2.11m-68.73 3.14c-.37-4.21.11-8.43 0-12.63-.73-1.16-1.27-2.41-1.21-3.79-.36-6.09-.44-12.31 1.15-18.25 3.13 11.29.6 23.18.06 34.67m-2.79-44.95c.18-5.6.54-11.22 1.34-16.77.51 4.52.23 9.12-.46 13.61.19 1.17-.05 2.28-.88 3.16m-15.8-48.63c-2.13 13.64-.72 27.52-2.15 41.23-1.67-3.47-.98-7.41-1.23-11.12-.4-6.53.13-13.1-.57-19.62-2.11 10.37.49 21.17-2.07 31.47-3.29 1.71-7.27 1.02-10.84 1.19-4-.94-8.07-1.54-12.16-.8-1.95.7-2.34-1.93-3.311-2.96.761-2.84 1.441-5.68 2.111-8.53-.47-1.91-.361-3.67 1.96-4 3.55-9.79 5.78-20.11 10.98-29.26 3.449-5.79 6.18-12.04 10.18-17.49.5.44 1.49 1.31 1.98 1.74.45 8.1-.81 16.29.75 24.32.35-5.91.97-11.88 2.63-17.59.83 3.75 2.38 7.52 1.74 11.42m-22.61-26.8c1.38-7.16 5.59-13.32 7.69-20.23 1.14-3.35 2.67-6.53 4.22-9.7 1.46-4.96 2.11-10.12 2.91-15.23 1.23 2.16 2.45 4.48 2.41 7.03-.76 3.6-3.48 6.4-4.35 9.96-.67 2.65-1.41 5.29-1.99 7.96.98 2.5.55 5.16.02 7.72-.71 0-2.131.02-2.83.03-3.32 7.28-4.77 15.24-8.41 22.36-2.8 7.63-5.51 15.29-8.46 22.86 3.16-9.97 6.03-20.04 9.26-30-.21-.91-.37-1.84-.47-2.76m-40.24 102.79c-8.92 2.4-18.51 4.06-26.08 9.68-1.82.69-3.75.97-5.63 1.35 1.39-2.11 2.52-4.67 5.03-5.65 9.2-4.55 18.2-10.39 28.68-11.32-.67 1.98-1.33 3.96-2 5.94m-.73-32.03c-1.42.23-2.84.35-4.26.41-2.85.48-5.69-.02-8.39-.95 4.21-.63 8.47-.11 12.65.54m-143.88 48.52c-4.64 8.19-9.73 16.12-14.92 23.97-1.92 2.84-4.49 5.22-7.39 7.03 4.76-5.66 7.76-12.45 12.02-18.46-6.18 7.31-12.12 14.86-19.14 21.4.14-.59.44-1.77.58-2.36-2.44-1.41-1.76-4.31-1.15-6.54.67-2.3 1.01-5.33 3.8-6.02-.13-1.34-.22-2.67-.28-4.01.85-.05 2.54-.16 3.39-.22.16-2.67-.28-5.82 2.27-7.53.72-1.86 1.93-3.42 3.65-4.46.22-1.43.25-2.97 1.22-4.13 3.41-4.8 6.48-10.08 11.45-13.47-.59 1.05-1.77 3.16-2.36 4.22 3.82-3.16 7.69-6.33 12.28-8.31-.82 6.5-2.46 13.01-5.42 18.89m-1.83 15.31c-2.63 4.49-5.33 8.93-8.66 12.95-.45-.69-.9-1.37-1.33-2.05 3.5-4.52 7.23-8.87 10.29-13.71-.08.71-.23 2.11-.3 2.81m-23.93-29.32c-1.39 2.59-2.8 5.17-4.28 7.71.13-2.96-.58-8.77 4.28-7.71m-124.55 45.6c-2.02 1.24-4.48.63-6.67.36 2.68-.95 5.95-.58 8.16-2.63 2.39-1.99 4.66-4.15 7.36-5.72-2.22 3.37-5.46 5.89-8.85 7.99m-110.14-156.84c-.68.05-2.04.15-2.72.21 1.91-1.63 3.73-3.34 5.53-5.09.02.3.07.9.09 1.2-.98 1.22-1.95 2.44-2.9 3.68m-49.16-22.87c-7.77-2.27-15.98-2.25-24-1.86 2.45-.81 5.03-1.05 7.57-1.46 4.25-1.97 9.15-1.2 13.7-1.56 8.18-1.15 15.9 5.97 16.3 14.07-5.19-2.07-8.2-7.42-13.57-9.19m-86.82 20.22c-9.49 6.31-16.66 15.69-21.29 26.02-5.63 9.05-8.88 19.81-8.04 30.52-1.72-3.29-2.36-6.97-2.5-10.66-.97 2.35-1.32 4.88-1.38 7.41-2.52-3.4-6.41-6.3-6.84-10.78 4.49-16.15 17.23-28.23 30.12-38.13 3.73-2.25 7.16-5.12 11.37-6.45-.36.52-1.08 1.55-1.44 2.07m-51.97 19.61c3.3-7.54 6.66-15.67 13.38-20.84 2-1.58 4.17-2.91 6.33-4.26-7.19 7.86-13.89 16.17-19.71 25.1m137.59 137.71c-6.2 5.84-13.69 10-20.23 15.4-4.09 2.85-8.16 5.84-12.65 8.01 2.43-2.45 5.42-4.26 7.83-6.75 5.96-5.95 13.34-10.14 20.01-15.2 1.43-1.11 3.38-.96 5.04-1.46m-16.53 44.51c.28.4.82 1.19 1.1 1.58-6.78 5.62-14.81 9.33-22.09 14.2-5.74 3.66-12.17 6.08-17.86 9.82 4.36-3.6 8.91-6.95 13.19-10.65 7.02-5.47 14.67-10.07 22.21-14.79 5.18-3.41 10.04-7.37 15.64-10.12-3.85 3.57-8 6.8-12.19 9.96m98.79-197.46c.46 6.92-1.87 13.54-3.59 20.14-2.14 6.96-1.45 14.5-4.4 21.26-2.08-14.19 1.83-28.66 7.99-41.4m625.49 115.37c2.18-4.11 6.33-6.45 10.02-9.01 2.1-1.46 4.53-2.36 7.12-2.42-5.21 4.15-12.241 6.1-15.741 12.22 2.711-2.65 5.561-5.41 9.391-6.32 4.19-1.18 8.62-.52 12.93-.89-1.49 3.4-2.48 7.41-6.031 9.28-5.719 3.25-11.349 7.12-17.949 8.3-1.301-.37-2.591-.75-3.85-1.15.799-3.55 1.94-7.04 4.11-10.01m30.54 30.49c1.51-3.95 6.47-4.73 10.03-6-3.35 3.15-7.49 5.24-11.19 7.92-1.76 1.27-3.91 1.73-5.981 2.19 2.25-1.58 4.75-2.74 7.141-4.11m-27.48 22.64c1.129-1.11 1.74-3.17 3.53-3.32 4.28-.35 8.2-2.13 12-4 2.14-1.21 4.95-.74 6.809-2.48 3.451-2.57 6.681-5.43 10.441-7.56 3.62-3.68 7.66-6.96 10.99-10.93 2.9-3.35 6.55-6.68 6.96-11.37-1.95 2.31-3.86 4.67-6.2 6.6-.41-.57-1.24-1.71-1.651-2.27-4.209 2.47-7.879 5.77-12.199 8.05-5.76 3.1-11.86 5.57-18.12 7.41-6.67 1.05-13.76 4.28-20.31.91-3.51-1.19-4.19-5.12-4.26-8.35 7.7-5.02 15.98-9.08 24.58-12.35 5.33-1.4 10.49-3.79 16.09-3.92-.571.73-1.72 2.21-2.29 2.95 3.05-1.04 6.74-1.45 8.94-4.1 5.38-6.49 6.64-15.09 10.58-22.36-.89.64-1.761 1.3-2.61 1.97-.36-.08-1.08-.24-1.441-.32-1.479 1.43-2.769 3.05-4.379 4.33.49-.99 1.02-1.97 1.58-2.93-2.86-2.08-4.44-5.4-7.28-7.49-6.05-4.65-11.1-11.27-19.05-12.62-1.34.51-2.66 1.01-3.97 1.53-1.32-.69-2.63-1.4-3.99-1.96-.11.69-.32 2.08-.42 2.78.6.08 1.81.25 2.41.33-1.3.11-2.6.17-3.89.21-1.39-2.31-2.48-4.78-3.9-7.07.24 3.46 1.429 7.36-.611 10.5-2.219-1.13-4.569-2.04-7.029-2.41.92 1.25 1.88 2.48 2.89 3.69-.361-.26-1.09-.77-1.45-1.03-1.85 2.8-3.86 5.47-5.88 8.13-.22 2.23-.741 4.42-1.92 6.35-3.62 6.43-6.04 13.48-7.34 20.73-.45 3.71-4 5.62-7.07 6.93-2.3 1.11-1.15 4-1.13 5.95-2.18 2.67-4.96 4.73-7.93 6.44-.89-2.5-1.43-5.1-2.04-7.67-1.02 3.53-.17 7.11.63 10.59-2.79-3.05-2.03-7.54-2.54-11.33-.05-10.63-1.14-22.19 4.66-31.68.32.1.95.28 1.27.37 1.07-3.23 2.2-6.55 4.56-9.11-.31 2.01-.67 4.02-1.03 6.03 2.16-2.62 5.21-5.92 3.78-9.56-1.11-4.37-6.41-4.79-9.56-7.16-1-1.02-1.68-3.05-3.45-2.73-3.58.69-6.37-1.88-9.52-3.02-1.34-.63-2.7-1.25-4.02-1.85.78 2.68.58 5.42-.19 8.07-1.23 1.46-2.41 2.98-3.24 4.7-3.4 7.22-7.03 14.34-10.82 21.36-3.18 6.01-5.19 12.53-8.04 18.69.84-7.14 2.66-14.1 4.15-21.13 1.17-5.3 3.54-10.36 6.93-14.6 1.25-1.74 3.65-2.37 4.69-4.21-.28-4.38-4.13-7.46-7.62-9.55-.77-2.07-2.14-4.2-1.03-6.42-.48.15-.94.29-1.38.45-.9 1.67-1.89 3.29-3.09 4.76-.21-1.13-.62-3.39-.82-4.52-.48.79-1.43 2.38-1.9 3.18.23-2.24.51-4.48.58-6.73-1 1.57-1.87 3.22-2.77 4.85-2.7-1.6-5.08-3.66-7.47-5.66 1.05 2.97 1.84 6.56-1.27 8.6-.19 3-1.49 5.7-2.57 8.45-.55 3.99-.72 8.07-2.06 11.91-3.31 9.21-6.08 18.61-9.31 27.84-.27-7.44-1.69-15.25 1.25-22.37 1.91-4.71 3.09-9.87 6.31-13.92.99-1.4 2.55-2.99 1.75-4.86-1.55-2.45-4.12-4.18-5-7.05-.39-1.44-2.37-.83-3.421-1.28-.279-1.65-.489-3.31-.859-4.94-.67.27-2.01.8-2.67 1.06-.73-3.11.43-7.26-2.05-9.58-2.39-1.74-2.39 1.92-3.13 3.31-2.21 1.7-4.4 3.45-6.93 4.64-.97.62-1.92 1.22-2.89 1.81-.77-1.3-1.53-2.6-2.29-3.88-.4 1.95-.78 3.91-1.24 5.86-1.47.33-2.92.69-4.35 1.11-.42-.35-1.25-1.03-1.67-1.37-.54.56-1.63 1.67-2.171 2.23-.769-1.31-1.519-2.63-2.25-3.95-.729 1.13-1.429 2.26-2.109 3.41-5.21-.07-10.42-.31-15.62-.35-6.22-.13-12.61.43-18.59-1.6 4.6-.96 9.27-.26 13.91-.04-3.74-2.89-8.94-1.39-13.32-2.06-.31-6.57 1.12-13.05 2.37-19.43-1.62-6.37 1.21-12.62.76-19.03-.44-4.58-1.151-9.3-.19-13.85 1.3-3.25 1.88-6.7 2.61-10.11.17-1.37 1.46-2.05 2.36-2.93-.65-.74-1.3-1.48-1.931-2.21.531-.24 1.601-.71 2.131-.94.94-1.99 1.86-4 2.38-6.16.71-.39 1.44-.78 2.19-1.16.02-.43.07-1.29.09-1.72-1.78-.76-2.23-2.53-2.61-4.23 1.47-.75 2.91-1.5 4.42-2.24-1.31-1.25-3.02-1.99-4.22-3.32-.21-1.92 2.22-1.99 3.369-2.9 2.221.74 4.551.31 6.771-.23-3.1-2.35-7.33-1.78-10.9-2.97-.03-1.32-.04-2.65-.04-3.97-1.06-.75-1.62-1.76-1.65-3.02 1.47-1.59 3.569-2.11 5.66-2.32 1.09-1.26 2.22-2.5 3.48-3.61 4.23-3.43 6.62-8.47 9.179-13.15-.399-2.61-.739-5.23-1.109-7.84.51.01 1.53.04 2.03.05-.26-.66-.78-1.97-1.04-2.63-1.47.58-2.92 1.16-4.36 1.75-2.34-1.58-4.771-3.14-6.53-5.38-5.03-6.54-9.25-13.86-11.31-21.89-.61-1.48.09-3.01 1.31-3.91 5.34-.6 9.07 3.88 12.93 6.79-3.39-4.23-5.21-9.45-8.62-13.64-3.33-.75-6.051 2.68-9.41 1.93-2.7.08-5.79-.71-6.09-3.87-.47.08-1.39.23-1.85.3.61 1.52 1.23 3.02 1.92 4.51-1.09.31-2.19.61-3.26.91-1.13-3.81-2.87-7.5-5.52-10.49 1.2 3.94 1.63 8.09.18 12.03-.771-1.44-1.5-2.89-2.26-4.32-.59 1.17-1.17 2.33-1.73 3.5-1.15-.29-2.32-.58-3.45-.86.03-1.01.1-3.04.14-4.05-1.88 1.58-2.98 3.76-3.75 6.03.97 1.72 1.44 3.62 1.26 5.6 1.08.26 2.08.71 2.99 1.37-.87 1.97-4.12 2.1-3.63-.73-2.17 1.29-4.56 2.14-7.03 2.62.75-2.41 2.42-4.22 4.24-5.87-4.08 1.01-5.08 5.14-6.98 8.31-.02-1.76.08-3.52 0-5.27-.88-1.57-1.83-3.1-2.87-4.56-.25 4.16-1.1 8.25-2.96 12-1.71 6.58 1.6 12.99 4.2 18.87 3.54 8.17 1.57 17.17.69 25.67-.66 6.6-2.79 12.92-5.37 18.99-5.761 18.56-12.3 36.85-19.14 55.04.93 2.65.64 5.3-.9 7.64-1.12.38-2.24.77-3.34 1.17.53.58 1.58 1.74 2.1 2.32-1.71 1.91-4.16 3.36-4.85 5.99-1.5 3.93-3.43 7.66-5.17 11.48-5.79-1.45-11.79-1.59-17.71-1.93-3.99-.13-8.06-.51-11.93.72.51.34 1.54 1.03 2.05 1.38-5.79 2.16-12.08 2.16-18.17 2.1-1.94.18-3.2-1.5-4.52-2.61 5.34-.67 10.71-1.46 16.1-1.23-1.41-.47-2.86-.74-4.3-.98-4.93-1.33-10.01-.67-15.02-.45-2.58.31-5.19-.27-7.7.54-.31 1.15-.66 2.29-1.03 3.42-2.04-.09-4.07-.02-6.07.26-1.77 2.43-4.82 2.89-7.29 4.22-4.18 6.26-7.27 13.17-12.02 19.05-2.83 7.06-8.84 12.01-12.68 18.45-2.31 3.2-5.1 6.02-7.73 8.96-2.56 1.78-5.33 3.41-7.11 6.05-5.6 8.04-13.07 14.48-19.48 21.83.66-1.24 1.34-2.48 2.03-3.7-1.55.61-3.09 1.24-4.61 1.9.31-5.71.55-11.5 2.18-17.02.78-2.91.61-6.07 2.01-8.8.31 4.66-.62 10.38 3.18 13.9-.47-1.19-.97-2.36-1.49-3.52.99-8.66 7.23-15.42 8.86-23.84.44.11 1.32.32 1.76.43.26-.35.76-1.05 1.01-1.4-1.6-.07-3.19-.16-4.78-.27-.23-.4-.71-1.2-.95-1.6.89-.1 2.66-.3 3.55-.4-1.5-2.12-3.73-1.19-5.71-.53l1.52-2.24c-5.58.1-11.09-1.34-16.67-1.65.73-2.47 1.72-5.08.78-7.65-.45-3.26-3.36-5.1-5.72-6.97.18-.47.55-1.42.73-1.9-3.76-1.4-7.49-3.2-9.68-6.74-.63.32-1.25.65-1.86.99-1.38-.55-2.75-1.06-4.14-1.53-.41-1-.8-2-1.18-3-1.16.1-2.32.21-3.46.32-.53-2.13-1.04-4.27-1.62-6.38-.56 1.95-1.1 3.91-1.76 5.84-2.54.54-5.02 1.8-6.61 3.9-3.24 4.5-6.45 9.03-9.01 13.96-4.2 6.06-6.11 13.7-12.27 18.27.9-4.35 1.78-8.72 1.72-13.18-.63.33-1.87 1-2.5 1.33 1.51-8.11 1.91-16.48 1.3-24.7-1.36-4.12-3.51-7.95-4.49-12.22-2.4-5.93-5.52-13.83-13.01-14.18 2.45 2.62 4.93 5.31 6.46 8.6 1.66 3.37 2.24 7.12 3.58 10.6.87 8.36-1.59 16.41-2.6 24.61.89-1.64 1.64-3.35 2.45-5.03-1.72 12.81-4.7 25.62-10.21 37.36.01-3.69.66-7.34 1-11.01-3.74 7.7-6.39 15.9-10.55 23.4-2.01 4.58-4.23 9.09-7.1 13.2-1.27-4.03-1.96-8.23-2.17-12.45-.21-5.26-1.11-10.62.25-15.8.73-2.78.82-5.67.44-8.5.96-1.69 2.33-3.05 4.14-3.84-1.9-2.19-4.02-4.21-5.46-6.74-.19.09-.55.26-.73.35-1.31-2.37-4.05-2.88-6.3-3.92-.7-1.16-1.41-2.3-2.16-3.41-.14.81-.42 2.45-.56 3.27-.31-1.06-.62-2.1-.91-3.15-.72 2.55-2.85 4.17-4.36 6.22-.37 2.58 1.65 4.96 1.49 7.59-.23 2.71-.24 5.44.18 8.14 2.83 1.65 3.93 5.57 2.61 8.53-2.58 7.83-5.54 15.56-8.92 23.08-.24-3.35-.68-6.68-1.28-9.98-1.17 5.21.6 10.7-.99 15.78-2.77-13.05-1.02-26.46-.26-39.62l.77-.01c.22 6.34.64 12.7 1.44 19 .44-8.4-.16-16.88 1.34-25.2 1.16-6.25.8-12.82 3.1-18.84.89-2.51 3.28-3.91 4.87-5.91 1.5-4.31-4.53-2.44-6.45-4.84 1.07.13 3.2.37 4.26.5-1.58-1.57-3.25-3-5-4.37-.5.8-1.02 1.58-1.56 2.34-1.56-.54-3.06-2.01-4.79-1.02-1.02-.81-2.02-1.64-3.02-2.47-.05 1.56-.1 3.12-.15 4.68-1.5-.86-2.96-1.78-4.36-2.79.3.85.91 2.55 1.22 3.4-1.41.88-2.79 1.78-4.15 2.73.89-.01 2.68-.02 3.57-.02-2.61 2.08-5.62 3.72-7.91 6.15-1.58 3.32-.48 7.16-1.32 10.66-.66 5.41-3.77 10.01-5.32 15.15-.42-6.67-1.01-13.58-4.38-19.52-3.21-4.68-7.58-9.35-13.56-9.95 2.81 3.02 5.98 5.75 8.49 9.05 2.05 2.69 1.93 6.27 1.79 9.47-.92.38-1.82.8-2.7 1.26.08 3.02 2.35 5.53 2.14 8.59.15 5.52-2.49 10.48-4.24 15.56-2.22 6.35-5.93 12.2-10.8 16.84-2.08 2.09-5.12 2.53-7.61 3.93-3.6-.52-7.94-1.58-9.26-5.46-1.5-5.79 1.26-11.52 4.14-16.41-5.09 3.08-5.81 9.5-6.47 14.84-1.04-4.77-1.27-9.87.6-14.48 1.33-3.35 2.35-7.85 6.28-8.96 2.17-3.33 4.48-6.67 7.77-9.02-2.51 5.96-7.05 10.89-8.89 17.19 5.31-7.46 11.06-15.27 19.41-19.5 3.06-.21 6.07-2.07 5.86-5.51-.04-5.51-5.58-7.87-9.84-9.74.32-1.11.65-2.21.99-3.31-.79.26-2.36.8-3.15 1.06.18-1.5.36-3.01.55-4.51-4.11-.05-6.37-4.01-9.5-6.09-2.52 4.4-6.68 7.53-9.1 11.96-4.5 3.51-6.73 9.02-8.58 14.22-4.28 6.86-4.41 15.21-7.42 22.58 3.31-5.8 5.78-12.09 9.59-17.59-1.97 5.64-6.4 11.07-4.69 17.39-2.6 4.62-5.59 9.02-8.64 13.36-.2-.31-.6-.92-.8-1.22-4.29 4.13-6.87 10.12-11.35 14.28-.61-6.2.21-12.45 1.73-18.47.14-6.01-.53-12.13.85-18.04.5-2.69 2.7-4.55 3.78-6.97.11-2.99-.76-6.08.29-8.99 1.2-3.28 1.54-7.42 4.96-9.25-.76 3.38-2.23 6.53-3.25 9.83 3.64-3.04 5.4-7.57 7.92-11.46-1-2.47-1.81-5.1-3.69-7.07-3.19-5.31-8.9-7.98-14.49-10 .35 1.26.67 2.52.99 3.79-3.18-.94-6.53-1.12-9.63-2.32 1.95-1.14 4.23-1.11 6.42-1.25-3.18-2.86-7.61-2.1-11.51-2.51-.41-.44-1.23-1.32-1.65-1.75 1.2 3.25-2.08 5-2.35 8.02-.71-.4-1.42-.79-2.12-1.17.1 2.23-1.56 3.35-3.31 4.24.39.42 1.17 1.26 1.56 1.68-1.08 1.27-2.24 2.51-2.85 4.08-2.52 6.58-6.4 12.52-9.1 19.02-4.13 8.88-6.84 18.33-10.7 27.32.28-5.39 1.05-10.73 1.29-16.11.36-4.08.18-8.27 1.34-12.23.75-2.54 1.16-5.18.98-7.83.68-.39 1.36-.77 2.04-1.14-.52-.28-1.57-.84-2.1-1.13.63-1.74 1.5-3.37 2.25-5.06-1.66-2.11-3.21-4.76-1.47-7.32-.68-2.1-1.47-4.2-1.64-6.41.98-.87 2.09-1.58 3.17-2.31.52-4.64-1.63-9.07-.99-13.73-.61-1.22-1.75-2.47-1.17-3.93.6-3.64 1.08-7.55 4.2-9.99.43-3.85.93-7.68 1.57-11.49.86-5.14.77-10.43 2.1-15.49 1.21-4.57 1.5-9.4 3.41-13.78 2.73-6.02 3.9-12.75 7.65-18.3 1.12-1.5 2.29-3.34 4.45-3.34.29-3.11-.33-6.2-1.34-9.13-1.95-.99-3.91-1.95-5.93-2.76-.44-1.12-.87-2.25-1.29-3.37-2.75-4.82-6.51-8.87-9.98-13.14-3.51-5.9-8.29-11.49-8.68-18.67-1.36 1.6-1.59 3.74-2.19 5.67-2.1-.5-4.25-.87-6.29-1.56-.72-1.12-1.36-2.3-1.84-3.54.72-1.25 1.64-2.37 2.52-3.51-2.29.78-4.73 1.48-6.5 3.21-2.78 2.55-3.35 6.5-5.56 9.46-2.56 3.62-1.7 8.32-2.94 12.39.74 1.63 2.12 3.41 1.35 5.28-1.23 2.73-3.39 4.89-5.27 7.17.83-6.54 2.52-13.64-.6-19.85-2.1-4.09-3.63-8.43-5.6-12.58-.43.07-1.3.21-1.74.28.15-.78.43-2.34.57-3.12-1.22-.17-2.44-.3-3.66-.39-.01-.56-.03-1.68-.04-2.25-1.2-.57-3.18-.33-3.45-2.05.71-1.78 2.46-2.85 3.61-4.34-2.06.57-3.85 1.72-5.59 2.91.77-.93 1.54-1.86 2.33-2.78-.86-1.6-2.04-2.96-3.62-3.88-.05.84-.16 2.52-.22 3.36-1.28-3.44-2.4-6.94-2.69-10.62.05-1.59-1.22-2.45-2.49-3.07-.42 1.28-.83 2.56-1.23 3.85-3.96 1.05-6.71 4.16-9.72 6.69-3.75-1.14-6.54 2.01-10.08 2.44-3.24.3-5.89 2.46-7.52 5.17-2.61 1.09-5.34 1.8-8.1 2.35-1.47 1.29-3.15 2.29-4.83 3.28-.06-.7-.18-2.09-.24-2.79-3.17 3.28-7.44 5.03-11.27 7.39-5.91 2.41-12.19 3.8-18.19 5.95-2.16.72-3.29 3.32-5.8 3.17-2.11.6-4.2 1.23-6.3 1.83-.19 1.26.57 3.17-1.16 3.55-3.75.44-7.86-1.32-11.26.89-4.89 2.65-10.29 4.19-15.18 6.82-7.92 4.64-15.74 9.45-23 15.08-7.2 8.64-15.13 16.79-20.59 26.71-2.93 2.27-2.95 6.34-4.2 9.56-1.65 6.41-4.29 12.71-4.5 19.38 1.38 9.04 2.18 18.64 7.49 26.41 3.17 4.54.85 10.95 4.81 15.1 4.8 4.92 8.64 10.9 14.47 14.72 4.61 1.69 9.39 2.94 14.26 3.64-2.52-1.73-5.39-2.94-7.59-5.1 6.14-.07 11.51 3.64 17.67 3.69 1.3 1.04 2.61 2.07 3.88 3.15 5.03 1.15 9.96 2.7 14.82 4.41-.34-.7-1.01-2.11-1.35-2.81 1.11 1.65 3.2 1.53 4.87 2.12-1.35.39-2.67.84-3.98 1.34 4.33 1.41 8.34 3.64 12.53 5.43 5.75 2.71 11.83 4.63 17.67 7.13 1.95 3.4 6.16 3.79 9.07 6 3.37 2.49 7.51 3.61 10.8 6.23 4.11 3.2 9.33 5.31 12.04 9.99-.05.62-.14 1.86-.18 2.48 1.69-.61 3.46-.84 5.19-.23-.01 2.03.06 4.06.11 6.1.89-.34 2.67-1.01 3.56-1.35.13.91.37 2.72.49 3.63-10.46 12.07-24.62 19.88-37.48 29.04-10.54 6.02-20.51 13.34-32.21 17.02-6.77 2.86-13.72 5.68-21.19 5.79-.18-2.25-1.1-4.31-1.84-6.41-.35.07-1.04.22-1.39.29-.64-.92-1.29-1.83-1.95-2.72.77-5.59 2.9-10.92 5.79-15.73 1.6-2.06 3.75-3.58 5.54-5.45-.63-.63-1.25-1.27-1.85-1.92 1.48-1.17 3-2.3 4.59-3.34 2.01-3.29 2.82-7.71 6.67-9.46 3.91-2.12 6.37-5.95 8.63-9.63-4.78 3.99-8.48 9.1-13.3 13.04-4.89 4.5-8.88 9.85-13.41 14.68-4.69 5.64-10.42 10.26-15.64 15.38-.95 1.11-2.38 1.49-3.69 1.99l.04 1.18c-.55-.03-1.64-.07-2.19-.1.03.86.11 2.56.15 3.42-1.53-.52-3.05-1.07-4.55-1.63.19.94.58 2.81.77 3.75-4.81 2.77-8.92 6.85-10.77 12.2-1.58 5.3-5.44 9.86-5.65 15.54.57 3.13.97 7.11 4.3 8.58.15 1.37.29 2.74.41 4.12-1.5 2.15-2.63 4.52-3.79 6.87 1.74-.31 3.47-.68 5.21-1.03.72 2.01 1.37 4.04 2.06 6.07-.33.83-.64 1.67-.95 2.51 1.06-.29 2.13-.59 3.19-.88 2.49 1.95 5.03 3.85 7.3 6.08.61 1.37.77 3.2 2.19 4.03 1.76.75 3.72.82 5.53 1.41 2.23 1.48 4.05 3.52 5.72 5.61 1.33-.66 2.78-1.03 4.28-1.03 2.48-.64 4.13 3.13 6.31 2.57.75-2.98 2.06-5.76 3.49-8.46 1.45.75 2.94 1.42 4.49 1.98.19-2.09.19-4.18.09-6.26 1.19.11 2.38.23 3.58.34.71-.94 1.43-1.87 2.18-2.78.09-.48.26-1.44.35-1.92 1.37.02 2.74.04 4.12.06-.51-1.05-.99-2.11-1.44-3.17 1.22-1.6 3.62-1.34 5.26-2.31 1.5-1.74 2.79-3.66 4.57-5.13.7-.16 1.42-.32 2.13-.48 1.07.98 2.16 1.95 3.27 2.9.2-2.82.77-5.58 1.55-8.29 2.67 1.08 3.85-.88 4.52-3.17 8.76-6.78 17.36-13.76 25.96-20.75 7.84-4.65 14.54-10.92 21.25-17.04.29-.5.87-1.5 1.17-2 8.15-5.78 16.92-10.65 24.97-16.59 2.99-1.99 5.96-4.04 9.1-5.79.96-.79 2.14-.41 3.23-.26-.38 4.04-3.33 6.75-6.07 9.38 2.12-.85 4.36-1.51 6.28-2.77 1.98-2 3.93-4.02 5.98-5.95 2.33-2.16 2.85-5.41 3.71-8.31.62-.23 1.88-.69 2.51-.92-.17-.45-.5-1.34-.66-1.79 2.49.22 2.58-1.5 2.2-3.48 1 .05 3.02.14 4.03.19-1.26-.86-2.54-1.66-3.86-2.39-.7-.73-1.39-1.43-2.09-2.13.38-1.18.74-2.36 1.07-3.55-1.19.4-2.38.8-3.56 1.22-.88-2.87-.93-5.91-1.61-8.81-.28-1.55-.97-3.11-.51-4.68 1.24-5.57 1.72-11.62-.55-16.99-1.53-3.19-5.02-4.41-8.15-5.4.67 1.85 1.2 3.76 1.32 5.74-1.69-.67-3.92-.83-4.98-2.53-1.31-1.52-.45-3.48-.24-5.2-.86.72-1.7 1.47-2.5 2.24-1.34-.17-2.7-.3-4.03-.39-.23-1.47-.42-2.93-.63-4.4-1.14 1.22-2.31 2.4-3.53 3.52-3.66-2.7-7.4-5.35-11.93-6.32-1.4 1.49-3.29 2.01-5.27 2.1-1.8-1.9-4.14-3.73-3.84-6.66-3.16-.08-4.55-3.39-4.1-6.15-.91 1.15-1.8 2.32-2.68 3.49-1.21-.32-2.44-.62-3.65-.9-.1-1.39-.19-2.77-.27-4.14-1.42.98-2.86 1.95-4.32 2.88-1.73-1.24-3.41-2.54-5.28-3.56-1.2.73-2.3 1.62-3.42 2.46-3.7-1.67-7.6-2.67-11.62-3.15-6.4-2.24-13.07-3.48-19.62-5.1-9.33-8.01-21.71-10.97-31.55-18.22 5.66 2.56 11.18 5.42 16.71 8.25 5.48 2.88 11.56 4.3 17.52 5.83 5.58.18 10.67 2.82 16.2 3.4-3.39-1.64-6.93-2.97-10.27-4.73-11.66-4.17-21.79-11.45-32.38-17.68-6.15-2.94-12.27-6.06-17.73-10.16-4.69-5.39-5.41-13.25-4.23-20.06.55-4.19 3.41-7.43 5.42-10.97 3.44-5.5 9.54-8.39 13.89-13.04 8.56-9.08 18.61-16.77 29.97-22 5.47-2.77 10.86-5.97 16.97-7.13 7.01-3.1 14.67-4.3 22.16-5.82 6.02-1.96 12.51-2.4 18.76-1.5 4.78 1.62 9.22 4.24 13.26 7.24 3.07 3.29 5.64 7.09 7.6 11.14.12-1.45.24-2.91.38-4.36 1.33 1.73 2.95 3.31 3.88 5.33.12 2.58-.54 5.12-1.54 7.49-.41-2.22-.76-4.44-1.21-6.64-1.18 3.72-2.86 7.4-2.65 11.39-.44 9.42-6.86 16.8-10.38 25.15-2.61 4.76-5.79 9.2-7.92 14.22-3.85 5.15-7.39 10.53-11.15 15.75 2.56-2.08 4.1-5.09 6.48-7.35 6.36-6.83 9.75-16.21 17.35-21.88-.9 2-2 3.9-3.07 5.82 2.08-1.58 4.26-3.03 6.34-4.61 2.79-1.92 4.02-5.24 6.45-7.51 4.41-3.97 8.68-8.1 13.41-11.7 5.36-5.42 9.84-11.63 14.91-17.3.49.37.97.75 1.46 1.13-1.94 1.8-3.6 3.9-4.72 6.3 2.44-2.07 4.44-4.58 6.55-6.98.34.19 1.01.56 1.35.74 1.47.13 2.95.3 4.43.49 1.02 16.13 2.11 32.47-.46 48.51-.33 5.33.33 10.71-.41 16.03-1.33 6.69-.69 13.54-1.44 20.3 1.29-8.45 1.46-17.13 3.9-25.37 1.21-4.64.74-9.51 1.83-14.16 2.64 22.3-2.23 44.5-3.97 66.67-.53-6.48-1.13-12.94-2.21-19.35.51 15.62-3.04 31.01-2.8 46.62-.33.02-.99.07-1.32.09.11 1.26.19 2.53.25 3.8l1.35-.08c-.98.62-1.96 1.23-2.93 1.85 1.07 1.19 2.4 2.67 2.13 4.42-.7 4.6-.25 9.32-1.47 13.84-1.45-2.81-.65-5.96-.57-8.95-1.06 3.09-3.75 5.97-2.89 9.43 3.04 6.17 10.83 6.77 15.11 11.64 2.85.52 6.4 3.46 8.5-.06 2.71.08 5.32.85 7.98 1.31.6-5.12-1.68-9.87-2.12-14.88l-1.2-1.84c1.22-1.34 2.46-2.66 3.7-3.99-.49-.13-1.47-.39-1.96-.53.84-2.56 1.92-5.09 2.16-7.8.56-5.19 2.69-10.03 4.16-14.99 1.8-10.71 6.61-20.56 11.09-30.35 1.48-3.62 4.2-6.52 7.12-9.04 1.23 3.22 1.27 6.74.17 10-1.72 8.4-1.13 17.25-4.52 25.29 1.27 4.27.53 8.75 1.03 13.11.14 5.97 1.37 11.84 1.48 17.8.91.61 1.85 1.2 2.8 1.77-.53 1.1-1.03 2.23-1.49 3.37 1.21.05 2.43.09 3.65.1 1.17 2.01 2.86 3.61 4.46 5.27 3.92.58 7.91 1.27 11.76-.16 2.57-5.49 5.51-10.82 7.54-16.55-2.3 2.65-3.73 5.89-5.9 8.62.87-3.53 2.66-6.77 4.99-9.53 3.86-4.46 6-10.05 9.04-15.05.3 3.83.42 7.7 1.27 11.46.13 3.77 4.78 4.84 4.89 8.72-1.42-.65-2.84-1.29-4.26-1.92 5.15 6.45 13.32 12.14 21.95 10.48 9.18-2.04 15.6-9.84 20.53-17.34 1.44-1.79 2.07-5.14 4.99-4.78.26-1.62.57-3.23.92-4.84.87-.1 2.61-.31 3.47-.42-.33-1.42-.66-2.84-.98-4.25 1.83-1.45 3.44-3.13 1.95-5.6l1.58.57c-.38-4.56.05-9.14-.16-13.7-.27-3.56.82-7.11 2.81-10.05 1.31 2.45 2.57 4.95 4.42 7.06-.29-2.02-.6-4.01-.87-6.02 3.24 4.62 4.68 10.24 4.42 15.84-1.06 5.1-1.66 10.3-3.2 15.29-.99 3.21-.99 6.6-.94 9.93.14 5.73-.79 11.42-.62 17.15.78-.47 2.35-1.39 3.13-1.86.9 1.58 1.8 3.17 2.61 4.8.84-.46 1.7-.92 2.56-1.37-.91 1.44-1.81 2.89-2.71 4.34 3.42-1.61 6.6.76 9.7 1.91 2.07.03 3.27-2.22 3.91-3.92 2.67-7.44 4.72-15.08 6.81-22.7 2.17-.87 3.28 2.63 4.66 3.76-.07-1.2-.21-3.59-.28-4.79 1.45 3.38 1.12 7.15 1.54 10.73.36 2.46-1.84 4.02-2.96 5.91.62 2.2 1.76 4.37 4.08 5.11 4.05 1.67 6.31 5.79 10.17 7.7 1.79 1.14 3.35-.4 4.76-1.37.09-.63.27-1.88.36-2.5 5-7.94 7.53-17.11 10.35-25.99 1.48-4.96 2.88-10.14 6.31-14.17-1.61 6.47-4.43 12.57-5.62 19.17 2.39-7.55 6.53-14.35 9.12-21.81 1.85-6.41 6.67-11.31 9.47-17.26.72-1.84 2.05-3.31 3.39-4.72 2.78-2.92 4.75-6.5 7.57-9.39-3.96 7.21-5.31 15.57-10.05 22.36-1.81 6.41-4.69 12.44-6.84 18.73-1.43 3.64-2.1 7.58-4.05 11.01-1.1 6.41 3.28 11.87 6.36 17.07 1.52 2.91 4.51 4.52 6.53 7.03 1.39-.61 2.76-1.26 4.16-1.88.49.62.99 1.24 1.51 1.87-.11-1.18-.22-2.35-.31-3.51 1.6-.16 3.21-.3 4.83-.43.54.39 1.6 1.16 2.13 1.54-1.08-6.74 5.67-10.36 8.38-15.68-.88.55-2.64 1.65-3.52 2.2.69-1.35 1.41-2.69 2.09-4.04.89.55 2.05.97 2.7-.2 4.88-6.09 10.14-11.86 15.91-17.14-.27 3.28-.44 6.58 0 9.85 1.26-3.32 1.87-6.84 3.24-10.11.02 5.98-.34 12 .94 17.9-.74-.42-2.21-1.25-2.94-1.67 1.5 3.85 3.18 7.66 5.14 11.31 1.95 3.77 5.97 6.03 10.03 6.75 2.81-.16 5.6-.44 8.42-.2-.5-.54-1.51-1.63-2.01-2.18.18-.14.54-.43.73-.57-.99-.78-1.54-1.79-1.68-3.02 2.71-4.45 4.42-9.47 7.4-13.77 2.22-3.92 5.64-7.31 6.59-11.82 2.87-4.54 6.49-8.58 10.08-12.56 4.8-3.89 8.3-9.09 13.11-12.98 4.23-3.28 7.62-7.48 11.57-11.08 1.63-.59 3.24-1.29 4.85-1.98-.21 1.76-.2 3.56-.59 5.31-1.17 1.69-2.63 3.16-3.84 4.82.7.16 2.09.48 2.78.63-.54.8-1.08 1.59-1.57 2.41.57.31 1.73.94 2.3 1.26.48 1.23.99 2.47 1.51 3.7-1.27.72-2.56 1.4-3.72 2.28-.3 2.85 3.46 3.29 3.86 5.98.74.37 1.49.74 2.25 1.12-.42 1.82-.84 3.65-1.15 5.5 4.17-1.97 4.87-7.07 6.72-10.84.27 3.05-.54 6.55 1.52 9.14 1.14 1.29.49 3.1.72 4.64 1.99-.72 3.53-2.15 4.94-3.68 5.59-.22 9.79-4.14 14.49-6.62 3.37-1.94 6.97-3.46 10.31-5.47 7.35-5.04 15.75-8.17 23.55-12.42-2.12 6.21-3.98 12.49-5.78 18.79-1.18 3.99-3.58 7.47-6.4 10.47.14-3.6.82-7.14 1.53-10.67-1.63 2.83-2.78 5.9-3.47 9.09-.04 1.41-1.44 1.95-2.37 2.71-.88 3.05-3.15 5.35-5.18 7.68-1.04 1.71-2.29 3.28-3.69 4.7-.66 3.52-1.54 7-2.71 10.38-.62.01-1.85.02-2.47.02-.04 2.15-.12 4.31-.04 6.47-1.82 4.84-3.24 9.88-4.03 14.98.43.51 1.29 1.52 1.72 2.02.62 1.63-.67 5 1.76 5.22 1.47-2.1 2.7-4.35 4.15-6.47 1.67 3.59 3.91 6.84 6.8 9.57.1-1.01.3-3.02.4-4.03 1.04 3.22-.12 6.59-.18 9.86 2.16-2.36 3.77-5.13 5.1-8.04.93 1.25 1.86 2.51 2.78 3.78-1.21 2.57-2.8 4.94-4.19 7.41 3.25.09 3.02-3.76 4.77-5.6 1.54-2.61 4.78-3.26 7.51-2.31 3.73-2.2 7.19-4.85 10.24-7.93 1.57-1.68 1.65-4.17 2.91-6.05 4.7-6.11 3.01-14.3 4.75-21.37 1.12-6.67 3.07-13.31 2.56-20.14-2.68 2.63-2.57 6.72-3.22 10.17-.76-8.85.87-17.64 2.75-26.25.41 1.39.83 2.78 1.28 4.17 1.34-3.95 1.51-8.15 2.24-12.23.59.33 1.79 1 2.38 1.33.03-1.83.05-3.67.04-5.5 1-.72 2.04-1.43 2.99-2.24-2.26-1.65-3.34-3.9-2.73-6.7 1.01.17 2.03.33 3.07.5.15-1.47.31-2.94.49-4.4 2.65-.43 5.35-.18 8.01-.5 2.92-.89 5.86-2.31 9.01-1.74 2.68-.03 5.89 1.57 8.1-.64 2.32-.36 4.66-.93 7.04-.75 2.22.99 2.24 3.96 1.15 5.8.33.13.98.38 1.31.51-.35 18.24.62 36.47 1.24 54.69.05 7.09 2.29 13.94 2.58 21.01.05 1.39-1.24 2.29-1.9 3.39.86.82 1.73 1.66 2.6 2.5-.39.95-.76 1.9-1.12 2.86.79 1.11 2.46 2.17 1.73 3.77-.59 1.17-1.34 2.25-2.03 3.37.66.29 1.97.88 2.619 1.18.201 2.83.531 5.67 1.281 8.43.9-.02 1.82-.03 2.75-.04.41-1.84.85-3.67 1.28-5.51.3 2.34.82 4.66.92 7.04 0 3.02-1.66 6-.64 9.01.94-.67 1.85-1.42 2.82-2.07.96 3.5-.74 7.02.02 10.52.64 3.97.83 8 1.069 12.02.481.33 1.441 1.01 1.921 1.35-.77 2.62-1.51 5.24-2.21 7.88.49-.06 1.47-.19 1.96-.25-.13 3.18.67 6.26 2.23 9.03-.07.73-.21 2.18-.27 2.91l.98.05c2.36 7.28 3.07 15.05 5.71 22.22 1.05-3.65-1.44-7.01-1.28-10.66.11-3.7.87-7.35 1.06-11.04-.08-2.35-1.03-4.61-.82-6.98.31-10 .9-20.02.1-30.01.07-11.98.88-23.96.07-35.92-.17-8.68-.88-17.35-.65-26.03.199-4.39-1.1-8.66-1.051-13.04-.009-16.79 1.101-33.56 1.191-50.35 8.12-.92 16.34-1.06 24.51-.85-4.54 1.22-9.73.36-13.77 3.12 4.48-.02 8.99-1.41 13.44-.31 6.35 1.7 13.19.06 19.34 2.74 5.36.97 6.7 7.12 7.51 11.64.63-2.35 1.27-4.7 1.97-7.04 2.07 4.39 1.53 9.34 1.8 14.04-.57-.14-1.72-.43-2.3-.57.02 4.86.75 9.69.809 14.54-.589 11.56-.989 24.17-8.529 33.64-.08.51-.221 1.55-.3 2.06.68-.04 2.02-.13 2.7-.18.82.86 1.66 1.73 2.5 2.6 2.2.88 4.74 4.49 6.7 1.39 1.929.63 3.86 1.25 5.82 1.85 1.44 2.14 2.74 4.4 4.63 6.2-.41-1.61-.9-3.23-.8-4.91 1.58 1.27 3.07 2.67 4.63 3.99 1.21-3.12 3.29-6.13 2.74-9.64-.42-4.64-.83-9.28-.63-13.94-.13-1.7.14-4.93-2.34-4.84-2 1.72-1.35 4.99-2.32 7.36-.41-7.27 1.74-14.32 2.77-21.45 1.51-10.93 4.1-21.81 8.71-31.87.88-1.42 1.32-3.63 3.23-3.99 1.02 10.63-.29 21.31-2.761 31.66-1.299 4.45-5.069 8.19-4.869 13.02 1.14 2.46 3.44 4.04 5.55 5.61-.09-.88-.29-2.65-.38-3.53 3.65 1.43 1.8 6.16 4.52 8.34 2.679 2.88 3.92 7.02 7.48 9.11 1.91.87 1.24-1.91 1.83-2.84 1.99-1.03 1.02-3.15.93-4.82 1.29-2.17-.29-6.56 3.189-6.48-.159-2.42-.679-4.83-.539-7.25 3.7-12.36 8.24-24.59 15.18-35.53.18-.1.54-.3.73-.4-1.64 8.54-1.28 17.25-1.27 25.9.14 8.61 2.28 17.44 7.53 24.41 2.28 2.87 5.32 4.97 7.77 7.66 2.849-.15 5.4 1.07 7.86 2.35.04-3.62.67-7.17 1.66-10.64 1.11-4.92 4.7-8.68 7.4-12.78 1.01.14 2.03.28 3.07.43 1.21 1.65 2.43 3.37 2.63 5.48.75 4.58 2.4 9.1 5.479 12.64 2.881 3.1 6.441 5.69 8.421 9.53.46-.69.93-1.38 1.42-2.07 1.46.1 2.94.17 4.43.21.15.53.45 1.6.6 2.13m54.58 55.61c-.52 5.35-.64 10.75-1.13 16.12-1.08.87-2.56.6-3.821.78-4.04.24-8.159.96-12.139-.12-10.33-1.05-20.74.25-31.06-.3-.06-5.34-1-10.72-.17-16.04.82-5.11-1-10.34.35-15.39.38-1.43 1.62-2.68 3.18-2.66 5.67-.44 11.38-.1 17.049-.77 4.621.34 9.25.62 13.891.63.3.35.899 1.05 1.19 1.39.41-.2 1.22-.62 1.63-.83 3.12.25 6.39-.1 9.39 1.01 2.2.64 1.2 3.43 1.55 5.13 1.47 3.56 1.43 7.45.09 11.05m1.22-22.53c-4.671 1.25-9.45.1-14.18.29-12.34-.35-24.7.04-37.01-1.11-4.481-.63-6.75 4.61-6.58 8.32.78 4.01-.18 8.12.93 12.09-.31.43-.91 1.28-1.22 1.7.45 1.04.87 2.1 1.24 3.18-.65 6.94-.891 14.02.29 20.91 1.45.42 2.89.94 4.41 1.17 3.04-.2 5.83-2.02 8.96-1.62 3.34.43 6.59-.68 9.93-.66 8.45-.85 16.86.66 25.309.85 3.661 1.31 7.931 2.21 11.761 1.3 3.98-2.36 1.25-7.54 2.68-11.11-.28-.38-.85-1.15-1.13-1.54.11-3.01 1.88-6.22.17-9.06-1.37-2.77-1.34-5.91-1.82-8.9 1.14-1.26 2.31-2.5 3.26-3.92 1.76-2.11.51-4.98.51-7.43.08-3.63-4.48-5.41-7.51-4.46m-8.05 23.85c-2.97.37-4.94 2.55-6.72 4.7 1.849.08 3.74.32 5.62.08 2.21-.23 3.939-3.96 1.1-4.78m3.31 7.34c-4.84-1.77-10.08-.85-15.08-1.11-3.08-.75-1.59-4.42-1.63-6.66 4.08-.05 8.46.79 12.3-1.02-.021-.64-.061-1.91-.09-2.54-4.17-1.06-8.45-.68-12.67-.37.15-1.92.35-3.83.63-5.72 1.63-.26 3.29-.51 4.93-.85 3.11.57 6.32.74 9.48.39.11-.46.34-1.37.449-1.83-2.29-2.24-5.729-1.97-8.659-1.97-9.03.53-18.06-.14-27.08.08-2.79.21-3.32 3.53-3.97 5.68 5.36-1.03 10.78-1.68 16.25-1.87.28 1.44 1.4 3.2.1 4.48-2.06 3.42-6.17.54-9.22 1.13-1.78 1.16-2.69 3.15-3.68 4.93 4.21.16 8.42-.38 12.65-.47.66 2.06 1.569 4.48.18 6.46-4.361 1.29-8.861.14-13.28.17-2.15 1.13-3.92 3.3-3.62 5.85 5.24.85 10.41-.8 15.59-1.33 3.76.44 7.5.01 11.22-.61 4.94-.89 9.87 1.79 14.8.37 1.33-.02 1.56-2.81.4-3.19m226.42-3.79c2.1-.68 3.95-2.13 6.19-2.39 1.85.17 3.18 1.67 4.64 2.68.88-1.16 3.09-2.72 1.27-4.1-2.03-.42-3.9.55-5.76 1.14-4.2-1.41-8.7-2.17-13.11-1.53-.44 1.64-.85 3.28-1.2 4.94 2.65-.08 5.43.29 7.97-.74m145.27-116.24c3-1.32 5.73-3.22 8.08-5.51-3.09 1.15-5.96 2.95-8.08 5.51m390.44 150.24c-4.561-12.52-9.91-24.87-12.24-38.08 1.22 9.4 3.01 18.71 6.13 27.69-.71-.3-2.13-.9-2.84-1.2-3.57-11.09-6.32-22.4-8.97-33.73-1.47-4.23-1.56-9.1-4.41-12.71-2.82-13.97-3.01-28.26-3.93-42.42 2.79 1.59 2.83 5.19 4.09 7.84-.66-5.74-.75-11.51-.54-17.29.17-4.38-1.601-9.91 2.78-12.79 1.65.36 3.329.67 5.04.95-1.16-.96-2.32-1.85-3.51-2.71.38-.29 1.13-.86 1.5-1.15-2.68-2.37-5.71-4.3-8.94-5.8-.83-1.53-1.71-3.03-2.62-4.5-1.37.47-2.74.96-4.11 1.31-3.89-1.27-3.86-5.85-5.14-9.04-1.851-.27-3.67-.56-5.46-.96-.96-.63-1.44-2.2-2.74-2.01-.68 3.91-1.441 7.81-1.89 11.76-.61 4.05 1.37 7.88 1.31 11.91-.09 5.06-1.17 10.04-1.48 15.09-.54 10.07-5 19.36-9.41 28.26-3.31-3.82-4.54-8.82-7.21-12.99 1.36 5.56 3.739 11.06 3.35 16.9-4.93-5.6-6.4-13.09-8.55-20.01-.9-5.83-.55-11.8-.1-17.66 2.57 5.92 2.72 12.52 4.94 18.55-1.03-8.33-1.23-16.71-1.651-25.09-.029-3.82-.429-8.01 1.601-11.43 1.36-1.56 3.12-2.73 4.53-4.27.73-.16 2.18-.5 2.909-.67-.929-3.58-4.04-6.19-4.879-9.83-5.27 1.42-10.58 2.22-16.04 2.31-.8-.46-1.56-.94-2.26-1.46.05-1.63-.06-3.24-.34-4.83-.84.91-1.65 1.83-2.43 2.75-2.75 1.01-5.04 2.86-7.11 4.86-2.42.17-4.02-1.4-5.38-3.14.02 2.57-.15 5.13-.44 7.68.85 3.75 1.93 7.8 4.839 10.54-.129 1.24-.239 2.49-.339 3.74 1.04 1.49 1.99 3.04 2.98 4.59-.01.82-.01 2.46-.02 3.28-3.2 5.97-11.15 5.28-16.68 3.65-3.7-.55-4.941-4.4-6.8-7.05-1.36-1.27-2.891-2.32-4.29-3.5-.59.09-1.75.28-2.33.37-.59-1.11-1.16-2.22-1.731-3.32-2.309 6.06-6.109 11.51-7.809 17.8.769 2.96 3.33 5.61 2.3 8.86-1.51 7.67-1.37 15.49-.82 23.25-1.98-5.98-4.83-11.78-5.24-18.16-.89-8.42-2.7-17.92 2.56-25.35 1.56-1.79 2.32-4.79-.02-6.28-4.43-1.58-9.45-1.81-13.58.67-1.4-.52-2.82-1.05-4.19-1.55-.09.82-.29 2.45-.38 3.27-1.18-1.4-2.34-2.81-3.55-4.16.189.88.55 2.65.729 3.53-1.869-1.6-3.909-3.06-6.369-3.5.73.83 1.49 1.63 2.3 2.42.29.46.86 1.39 1.14 1.85-1.47 2.52-2.48 5.25-3.53 7.95 3.06 6.74 4.98 14.34 3.37 21.72-1.3-1.11-2.61-2.19-3.92-3.23-.36.73-1.09 2.19-1.45 2.92-1.84-3.18-3.67-6.57-6.78-8.7-3.97-2.93-8.79-5.74-13.91-4.67l.24 1.14c7.369 2.15 14.63 7.11 16.55 14.96 1.04 2.13-1.32 2.82-2.88 2.97-.41-.88-1.24-2.63-1.65-3.51-.05 3.68 3.84 5.57 4.38 9.04 1.19 4.78-.18 9.62-.01 14.44.019 5.69-1.47 11.3-3.72 16.5-1.7 4.13-4.74 8.43-9.48 9.12-4.14.19-7.85-2.08-11.13-4.33 1.51 2.09 3.39 3.87 5.21 5.69-1.96-.93-4.28-1.49-5.56-3.38-5.29-7.03-4.96-16.86-1.66-24.67.88-2.05 1-4.82 3.609-5.46-.659 5.73-1.509 11.49-3.329 16.98.45.87.94 1.73 1.44 2.6.41-7.38 2.63-15.09 8.09-20.36 2.75-2.63 3.94-6.51 6.93-8.94 1.49-1.39 3.23-2.72 4.06-4.67.01-2.57-.87-5.24-2.92-6.89-2.57-2.3-6.23-2.04-9.28-3.2-.62-1.53-.97-3.13-1.58-4.65-.82.06-2.46.19-3.28.25-.52-1.23-.98-2.45-1.44-3.68-.87-.68-1.7-1.35-2.51-2.03.069 2.04-.78 2.77-2.56 2.19-.17-2.33.04-4.67.12-7-3.85 2.71-3.31 7.61-5.21 11.34-1.04-1.09-2.08-2.14-3.13-3.17-.58 3.15.05 6.29.43 9.42-.91.02-2.74.07-3.66.1.24 1.9.5 3.8.82 5.7-.8 1.03-1.58 2.07-2.35 3.11 1.09 5.37-1.13 10.88-.47 16.34 1.87-3.19 2.47-6.93 4.07-10.26.93 6.42-3.1 12.07-2.96 18.35 2.12 6 2.84 12.54 6.219 18.06 5.241 9.48 9.371 19.67 11.131 30.41.39 2.45 1.6 4.66 2.71 6.86-.55-4.75-1.61-9.51-1.04-14.31.44-2.55-1.14-5.56.43-7.79 3.09.7 6.07 1.81 9.24 2.24.29.39.85 1.17 1.13 1.56.45 0 1.34.01 1.78.01.329-4.55 5.74-2.88 8.45-1.7-.06-.66-.18-1.97-.24-2.62 1.39-.86 1.27-2.3 1.04-3.7 1.19-.43 2.4-.85 3.65-1.25.719-6.33 4.64-11.54 6.15-17.64 1.11-4.42 3.13-8.58 3.8-13.11 1.21-5.53.42-11.21.04-16.78-.4-.17-1.2-.52-1.61-.69.1 2.9.17 5.81.04 8.71-1.14-6.61-4.42-12.71-5.16-19.34 2.68 3.08 3.32 7.25 4.72 10.97 1.81-4.51.11-9.59 1.07-14.3.879-.82 1.79-1.66 2.69-2.5 3.99 5.2 3.85 12.13 6.58 17.93.12-2.22.18-4.45.43-6.65 3.59 7.35 6.62 15.17 7.69 23.32-2.79-4.33-3.42-9.69-6.52-13.86.45 2.81 1.77 5.36 2.5 8.11.9 3.2.82 6.77 2.86 9.58 4.32 7.29.32 15.69-.41 23.38 1.48.06 2.97.11 4.49.15-.24 1.06-.42 2.14-.59 3.22 1.24-.24 2.51-.47 3.8-.7.72-1.28 1.51-2.53 2.28-3.8 5.02-.51 9.96 2.24 12.57 6.48.58-.84 1.18-1.67 1.799-2.5 2.531.3 5 .91 7.491 1.49-1.27-2.91-2.08-6.01-3.64-8.79.01-1.72.49-3.6-.43-5.17-2.68-5.26-6.171-10.15-8.01-15.8-.48.59-.94 1.2-1.37 1.81.09 1.29.18 2.58.29 3.88-.85-4.25-4.24-7.64-4.34-12.06-.11-5.32-1.82-10.9.53-16 .46 2.38.85 4.82 1.33 7.22.38-8.53 1.29-17.2 4.5-25.18 5.13 3.37 10.19 7.21 16.149 9 2.721-.07 5.181-1.6 7.75-2.42.801-2.09 1.701-4.13 2.511-6.21 1.63-1.78 1.489-3.89.48-5.93.11-.02.35-.08.46-.1 1.87 6.11 3.45 12.3 5.28 18.42.83 2.89 1.11 6.03 2.86 8.58-1.02-7-1.54-14.04-.95-21.12 1.78 6.93 4.17 13.73 5.34 20.8.5 7.84 3.76 15.43 8.94 21.31 2.21 2.77 5.94 3.13 9.079 4.23 7.011-.97 13.041-6.26 14.531-13.25-2.5 2.57-3.9 6.15-7.14 7.97 2.08-4.2 4.55-8.19 6.78-12.32-.99-3.02.19-6.07.76-9.04.75-3.45 1.01-6.99 1.77-10.44.46 4.59.56 9.33-.77 13.8-.82 2.64-1.24 5.38-1.24 8.14 1.28-1.53 2.58-3.1 3.809-4.7.411 4.44 1.171 8.85 1.971 13.24.85 3.89-.9 7.85.06 11.75 1 .83 2.14 1.46 3.3 2.14 1.36 6.24 2.68 12.53 3 18.93 1.71 5.38 2.53 12.27-2.31 16.33 1.37 1.55 2.54 3.26 3.74 4.97-1.2.96-2.36 1.94-3.48 2.95.73.14 2.17.4 2.89.53.039.76.11 2.29.15 3.05-1.3 1.18-2.51 2.43-3.67 3.71 1.95.78 3.9 1.63 5.88 2.43.14 3.56 0 7.33-2.33 10.25.19.61.58 1.81.77 2.41 3.239.25 7.22.6 8.38 4.28.34-.3 1.01-.9 1.35-1.21 1.64.39 3.259 1 4.71 1.96-.1 2.18 1.41 3.71 2.62 5.34.179 1.8.179 3.62.36 5.44.95-1.56 1.9-3.15 2.84-4.74 1.13 1.66 1.3 3.56.81 5.48 3.37.41 1.95 4.31 2.45 6.66 2.23 1.07 3.54-2.26 5.17-3.38.6 1.42 1.27 2.84 1.9 4.28.43-.12 1.3-.34 1.73-.46-1.23-4.36.2-8.73.39-13.12.23-1.68.18-3.87 2.14-4.54 2.139-.84 3.48 1.24 5.01 2.36-3.43-8.21-7.97-15.85-11.52-23.98m-117.67-64.64c.319.29.97.86 1.29 1.14.51-1.59-.06-3.55-.74-5.02-1.231.6-.64 2.73-.55 3.88m-126.63-54.37c-.18-1.42 2.18-2.51 3.34-1.83.1 1.38-2.23 2.49-3.34 1.83m-66.27 18c-3.84 2.57-7.57 5.37-11.741 7.38 5.861-4.77 11.091-10.31 17.361-14.59 3.8-2.72 7.78-5.19 11.4-8.16 1.31-.11 2.65-.22 4-.34-6.72 5.62-14.19 10.23-21.02 15.71m4.43 28.58c.37.32 1.1.98 1.46 1.31-6.881 5.79-15.12 9.52-22.55 14.51-5.61 3.62-11.98 5.87-17.48 9.67 7.75-6.31 15.32-12.92 23.83-18.21 6.06-3.99 12.36-7.62 18.22-11.92 2.68-1.89 5.4-3.77 8.44-5.07-3.75 3.5-7.841 6.61-11.92 9.71m-100.921-156.32c-.869 2.43-1.199 5.01-1.259 7.59-2.6-3.28-6.39-6.21-6.86-10.64 4.119-14.84 15.31-26.46 27.1-35.77 6.49-5.61 14.53-8.76 21.67-13.35-12.191 8.01-23.8 18.05-29.59 31.79-5.7 9.27-9.561 20.27-8.25 31.28-2.18-3.24-2.47-7.14-2.811-10.9m-20.369-25.28c4.07-9.88 9.15-20.41 19.329-25.26-6.799 8.14-13.849 16.14-19.329 25.26m140.52-45.4c6.559 1.4 11.599 7.21 12.28 13.87-5.24-1.61-8.03-7.07-13.21-8.85-8.03-2.49-16.6-2.45-24.91-1.94 8.43-2.25 17.08-3.59 25.84-3.08m116.26 348.6c.74-6.75-1.3-13.34-1.89-20.03-.1-3.51-2.95-5.97-3.89-9.21-1.91-6.13-5.8-11.48-7.04-17.82-.87-3.46-1.23-7.19-3.32-10.18.75 8.46 4.06 16.52 4.18 25.1-6.28-7.87-10.78-16.97-14.65-26.21-2.37-6.89-5.65-13.46-7.45-20.55-6.68-21.97-11.99-44.31-17.2-66.66-1.89-7.32-2.37-14.86-2.651-22.38 4.21 5.53 4.181 12.69 6.611 18.96 1.05 4.49 3.71 8.34 4.96 12.76.2-.01.6-.03.81-.04-2.4-13.01-6.15-25.78-7.48-38.96 2.22-.93 4.49-1.77 6.73-2.71-2.62.1-5.21.56-7.81.64 2.82-2.04 6.3-2.8 9.24-4.66 3.45-2.25 7.49-3.27 11.35-4.59 9.98-3.01 19.85-6.38 29.87-9.28 7.46-2.25 14.8-5.86 22.79-5.47 2.44.43 2.53-3.05 2.179-4.71-2-2.14-4.549-3.65-7.29-4.58-6.279-2.12-11.869-5.74-17.819-8.56-5.391-1.95-10.48-4.7-15.11-8.06-2.42-1.79-5.27-2.82-8.1-3.72 4.97 2.91 9.819 5.99 14.569 9.26 4.601 2.22 8.371 5.72 12.731 8.35 2.15 1.23 3.74 3.15 5.04 5.25-1.53-.75-3.07-1.5-4.59-2.18.37 1.34.76 2.69 1.18 4.04-1.37 1.32-2.67 2.69-3.901 4.12-10.409 2.38-20.219 7.28-31.029 7.84.51-.26 1.529-.79 2.04-1.06 1.11-2 3.54-2.33 5.44-3.27 4.18-1.91 8.51-3.47 12.72-5.34-15.46 2.6-30.36 7.64-45.23 12.43-1.2-3.61-1.901-7.35-2.58-11.08-.6-3.16-1.66-6.54-.09-9.6-2.3-.2-2.94-3.96-.28-4.37-.51-2.01-1.1-3.98-1.68-5.95.93-.94 3.09-1.32 2.71-3.02-1.45-.73-2.94-1.35-4.39-1.98 1.84-1.26 3.88-2.4 4.97-4.47-1.26-.32-2.47-.69-3.65-1.11-1-2.05-.52-4.44 1.46-5.69 2.85-1.61 6.19-2.48 9.49-2.1-.45-.64-1.361-1.92-1.82-2.56 3.13.88 6.1 2.22 9.16 3.33-3.62-3.24-7.96-5.46-11.9-8.24-3.98-2.31-5.19-7.55-9.551-9.39-3.639-1.74-7.599-.1-11 1.38-1.809-1.03-3.779-1.92-5.899-1.46-.93-.67-1.84-1.32-2.73-1.97.4 3.77.24 7.57-.81 11.23-.71-.02-2.14-.07-2.851-.09-.5 2.98-3.059 2.52-5.369 2.17-.46.43-1.39 1.28-1.86 1.7-1.19-.59-2.38-1.15-3.56-1.69 2.65 5.21 3.91 11.08 3.69 16.93-1.81-1.65-3.5-3.42-5.33-5.02 1.929 3.53 3.94 7.19 3.86 11.35.569 1.98.76 4.04 1.05 6.09.58 5.58 4.54 10.43 9.48 12.92 5.1 5.55 7.12 13.02 8.96 20.14-3.56 1.47-7.24 2.6-10.921 3.64.961-5.47 1.481-11.32-.629-16.6-1.44-3.31-5.081-4.58-8.2-5.71.55 1.72 1.3 3.46 1.24 5.31-2.29.39-4.13-1.22-5.97-2.26-3.81-2.47-7.97-4.3-11.98-6.38-4.2-2.07-8-5.2-12.79-5.73-4.77-1.34-9.57.98-14.33-.28-.07-1.53-.08-3.06-.04-4.59-4.59-2.35-9.54-4.37-14.78-4.24-2.81.24-5.16-1.59-7.84-1.96-2.36-.32-4.7-.62-6.91-1.47-5.58-1.95-11.43-2.88-17.12-4.32-2.93-1.94-5.51-4.43-8.68-5.99-7.89-3.83-15.94-7.47-23.26-12.32 9.6 3.82 18.16 10.13 28.35 12.48 3.09.72 6.12 2.28 9.39 1.71 4.31 1.46 8.71 2.77 13.26 3.29-3.68-1.5-7.34-3.01-10.86-4.84-9.8-3.46-18.49-9.27-27.3-14.64-5.25-3.74-11.54-5.64-16.83-9.3-2.53-1.76-5.65-2.91-7.3-5.66-3.7-6.81-4.24-15.34-1.26-22.5 2.56-4.02 4.66-8.53 8.43-11.6 3.24-2.77 6.78-5.2 9.74-8.29 6.959-7.29 14.85-13.78 23.65-18.72.23-.65.67-1.95.9-2.61.81-2.38 3.659-1.42 5.59-1.67 1.61.7 3.23 1.31 4.93 1.91-.31-1.63-.62-3.26-.93-4.88.68.3 2.04.91 2.72 1.22-.77-3.19-.14-7.16 3.22-8.52 2.68 1.71 6.9.35 8.36 3.71 1.97-1.05 4.14-1.7 6.42-1.55 4.95-2.69 10.71-2.47 15.99-4.17 5.24-1.55 10.819-1.62 16.23-1.08 4.96 1.43 9.44 4.26 13.64 7.21 3.13 3.19 5.36 7.17 8.02 10.75-.04-1.05-.12-3.17-.16-4.22 1.42 1.87 3.1 3.6 4.18 5.73.14 2.63-.56 5.21-1.801 7.52-.25-2.3-.529-4.59-.919-6.86-2.17 5.09-2.9 10.47-3.13 15.95-1.28.76-2.53 1.51-3.78 2.27 2.96 1.99.49 5.26-.24 7.82-.75.06-2.24.18-2.99.24 1.65 1.43.53 2.37-.91 3.21.64 2.61-1.61 4.3-2.98 6.16-1.65-.08-3.28-.12-4.88-.14.44.91.91 1.82 1.41 2.72-.9.93-1.75 1.88-2.59 2.83-1.95 1.58-3.62 3.46-5.42 5.18-3.1 7.37-10.41 11.35-16.361 16.13-6.059 5.09-12.379 9.88-18.159 15.29 7.02-3.49 11.73-10.3 18.74-13.75.33-.4.99-1.19 1.32-1.58 6.33-3.15 11.43-8.29 17.72-11.54 2.78-1.42 4.08-4.44 6.35-6.46 2.61-2.37 4.99-5.03 7.95-7-.83 1.54-1.71 3.04-2.66 4.5.35.86.72 1.73 1.1 2.6 2.02-3.11 4.639-5.73 7.13-8.44 3.5-5.48 8.93-9.25 13.61-13.64 3.31-2.17 5.56-5.61 9.04-7.52.09-.44.28-1.32.38-1.76 4.8-5.71 9.22-11.92 15.31-16.36-2.56 4.83-7.23 8.11-9.7 13 2.71-2.27 4.92-5.04 7.36-7.6-.03.46-.1 1.39-.14 1.85 2.11-.38 4.23-.66 6.37-1.08-.95-1.98-2.76-2.54-4.8-1.98 1.2-.51 2.369-1.04 3.61-1.58.469.6.96 1.19 1.48 1.79 2.87-5.82 4.62-12.57 9.82-16.86 5.35-4.71 8.52-11.19 13-16.62-.65-.58-1.95-1.73-2.6-2.31.1-2.44.34-4.86.58-7.29-1.18 1.04-2.33 2.12-3.44 3.2-3.17-5.57-7.42-10.79-7.85-17.48-1.021 1.84-1.55 3.89-2.18 5.87-3.18-.61-6.49-1.2-8.29-4.19.76-1.57 1.79-2.99 3-4.28-2.71.67-5.56 1.55-7.37 3.8-2.44 3.38-3.78 7.41-6.04 10.9-.72 4.17-2.22 8.69-.641 12.81 1.361 3.99-3 6.87-4.949 9.85.67-6.68 2.48-13.94-.88-20.21-2.19-4.11-3.43-8.66-5.91-12.61-.511.35-1.54 1.06-2.05 1.41.52-.93 1.05-1.86 1.579-2.81-.659-1.53-2.359-1.28-3.659-1.52.33-2.68-2.97-2.32-3.78-4.27.8-1.76 2.63-2.73 3.939-4.1-1.979.47-3.839 1.24-5.649 2.07.53-.52 1.59-1.57 2.12-2.09-.83-1.71-2.17-2.99-3.89-3.75-.05.82-.15 2.47-.2 3.3-1.4-4.27-2.2-8.68-2.94-13.09-.55-.04-1.65-.12-2.2-.16-.33 1.11-.64 2.21-.92 3.32-3.44.81-5.93 3.32-8.45 5.59-1.47 1.65-3.89.53-5.661 1.37-4.389 2.57-10.769 2-13.169 7.34-2.4 1.5-4.96.6-7.36-.3-.57.47-1.71 1.41-2.28 1.88 0 .78-.01 2.35-.01 3.14-2.07-1.68-3.42-3.99-4.72-6.25-.95.59-1.88 1.18-2.8 1.77 2 4.32.3 9.33-1.55 13.41-.23-1.82-.46-3.64-.68-5.46-.94 1.59-1.181 3.4-1.37 5.19-.48-.79-.95-1.59-1.39-2.39-.58-.1-1.72-.31-2.3-.41-.77-1.17-1.4-2.39-2.22-3.5-.28 1.16-.51 2.33-.71 3.51 1.349.8 3.059 1.62 2.33 3.53-.83 2.32-3.46.94-4.95.32-.89.66-1.76 1.32-2.62 1.97-.201-.75-.6-2.25-.81-2.99-.47-.27-1.42-.81-1.9-1.08-.39-1.06-.77-2.12-1.15-3.17-.82 2.03-1.67 4.03-2.67 5.96-1.16.3-2.31.61-3.43.92 2.2 2.42-1.66 4.87-3.48 2.62-8.75 2.31-17.49 4.99-25.6 9.06-4.17 1.78-8.49 3.27-12.38 5.62-7.73 4.85-15.84 9.24-22.56 15.5-2.57 2.78-4.69 5.94-7.32 8.66-11.22 12.17-19.27 27.86-20.19 44.57.51 9.64 1.9 19.63 7.079 27.99 2.841 4.39.741 10.42 4.441 14.44 3.67 3.69 6.69 7.97 10.45 11.59 3.63 5.59 10.569 8 16.94 8.65-.26-1.11-.42-2.22-.51-3.35-1.96-1.03-4.071-1.86-5.63-3.52 4.94.04 9.44 2.26 14.13 3.52-2.27-.05-4.56-.45-6.79-.08.16.7.429 1.37.81 2.02 4.23 1.29 8.7 1.18 12.92 2.6 4.86-.87 9.41 1.42 13.989 2.68.051-.3.141-.92.191-1.22 1.46.32 2.94.63 4.45.92-1.13.53-2.2 1.07-3.27 1.65 9.89 4.35 19.79 8.69 29.9 12.53 1.02 1.43 2.24 2.79 3.99 3.34 3.53 1.19 6.26 3.9 9.69 5.3 3.14 1.29 5.83 3.4 8.62 5.29 5.06 3.73 10.96 6.67 14.76 11.83.52 2.21-1.18 4.38-1.53 6.56 2.23-.33 3.93-1.78 5.54-3.25-.21 1.61.36 3.61-1.06 4.82-10.571 11.44-24.24 19.14-36.821 28.07-8.919 5.03-17.319 11.1-26.849 14.98-8.861 3.06-17.39 7.92-27.03 7.63 1.73-5.89 7.9-8.81 10.169-14.39 3.75-7.25 11.031-11.61 16.191-17.72.88-1.03.9-2.47 1.28-3.72-4.81 3.09-8.7 7.33-13.1 10.92-8.77 7.62-18.82 13.6-29.15 18.84-3.87 1.83-6.32 5.48-9.27 8.42-4.491.08-9 2.88-9.4 7.68-.02-.95-.02-1.89 0-2.83 2.35-3.44 5.44-6.27 8.159-9.41-6.799.93-10.989 7.16-13.099 13.15-1.54 4.79-5.151 8.96-5.16 14.19.44 3.29 1.15 7.14 4.47 8.75 1.06 4.42-1 8.81-4.13 11.86 1.32-.35 2.65-.73 3.98-1.14.41.13 1.22.41 1.63.54.7-.65 1.43-1.29 2.18-1.92-.48.68-1.46 2.02-1.94 2.7 1.17 1.22 2.37 2.43 3.56 3.67-1.58 2.05-3.14 4.19-3.701 6.78.851-.1 2.571-.3 3.431-.4 1.069-.85 2.15-1.73 3.41-2.34 2.05.68 3.42 2.48 5.09 3.79.35 2.83-.29 5.59-1.3 8.22 1.79-.43 3.619-.86 5.43-1.36 2.189 1.32 4.83.86 7.26 1.37.15 3.27-.87 6.3-2.7 9 1.51-.59 3.03-1.16 4.589-1.7.621-1.73 1.321-3.42 2.091-5.1 1.83-.33 3.659-.67 5.51-1.04.73.4 1.45.85 2.16 1.35.56-1.32 1.18-2.64 1.77-3.95 1.42.86 3.05.56 4.6.39.68-1.71 1.5-3.37 2.33-5.03 1.78.14 3.44-.21 4.45-1.86.1-1.75-.23-3.5-.27-5.23 1.95.11 3.69 1.05 5.54 1.66.25-1.97.38-3.95.569-5.93 2.021-1.65 4.461-1.99 7.011-1.76.34-1.11.6-2.23.81-3.37 2.53-2.57 6.14-3.73 8.4-6.6 2.37-2.67 5.56-4.39 8.279-6.67 7.261-5.76 14.481-11.55 21.671-17.4 6.72-3.96 12.52-9.24 18.36-14.37 1.66-1.37 2.7-3.3 4.19-4.82 8.86-5.95 18.02-11.47 26.71-17.68 12.4-4.26 20.71-15.43 32.55-20.8.75.06 2.23.17 2.98.23 4.07 16.53 6.21 33.49 10.45 50.01.9 4.03 2.5 7.99 2.32 12.2-.36 2.31 1.54 3.96 2.19 6.02 1.09 3.53 4.25 6.08 4.81 9.81 1.14 5.39 2.09 10.83 3.45 16.18 1.18 5.38 3.069 10.62 3.52 16.14-1.43 4.45.549 9.21-1.06 13.72-.55.33-1.67 1-2.23 1.33-.32 2.46 1.3 3.69 3.5 4.31.25 2.73-1.48 4.79-3.15 6.7 1.18.88 2.36 1.76 3.57 2.65-1.01 1.37-2.02 2.74-2.91 4.17.66.16 1.99.49 2.65.65.28 1.52.24 3.23 1.16 4.57 1.22.48 3.08-.16 3.84 1.29 3.14 4.68 9.06 5.7 13.63 8.5.42-.77.94-1.48 1.549-2.13 2.371 2.79 3.911 6.13 5.561 9.38 1.51.46 2.979 1.19 4.27 2.19.11-.62.35-1.86.459-2.48 4.121 1.29 8.901 1.46 12.141 4.63-.96-2.45-2.24-4.97-1.98-7.67m-376.82-190.2c-3.67 6.04-7.341 12.07-11.28 17.94-2.37 4.08-5.55 7.73-9.59 10.21 4.779-5.47 7.85-12.07 11.76-18.13-5.99 7.25-11.92 14.6-18.83 21.02.24-.8.5-1.58.78-2.36-.63-1.14-2.04-2.13-1.64-3.59 1.11-7.5 4.669-14.44 9.03-20.56 2.83-3.94 5.03-8.29 7.889-12.21 2.431-4 5.491-7.61 9.181-10.51-.73 1.58-1.62 3.08-2.431 4.61 3.761-3.34 7.771-6.43 12.351-8.58-.97 7.73-3.08 15.49-7.22 22.16m-137.41-6.13c-1.29-5.01-3.36-10.17-1.56-15.34l1.4 1c-.23 4.77.14 9.53.86 14.25-.18.02-.53.07-.7.09m259.26 26.19c6.1-6.71 13.92-11.45 20.92-17.08 3.74-4.77 9.36-7.42 13.51-11.75-6.161 3.33-11.3 8.2-17.06 12.14-8.2 6.68-17.44 11.89-25.58 18.65-.26-.21-.78-.63-1.04-.84-1.54 2.28-4.51 2.45-6.78 3.6-1.1-.86-2.161-1.71-3.22-2.58-.5.64-1.52 1.9-2.03 2.54-.69-1.86 1.299-6.5-2.3-5.06-1.19-5.07-1.111-10.28-.49-15.42.879-7.16 1.46-14.69 5.18-21.05 2.27.69 3.61-1.31 4.73-2.9.56-.11 1.69-.33 2.26-.44-.831-1.41-1.62-2.85-2.31-4.33-4.7-3.22-10.29-5.33-13.94-9.87-3.32-1.18-5.01-4.43-7.63-6.53-.1 2.29-.411 4.59-2.77 5.55-3.22-.59-6.44-1.07-9.58-1.91.28 2.33-.75 3.88-3.01 4.39.29 3.02.83 6.1-.03 9.09-2.28 9.18-7.25 17.35-10.47 26.2-.64.07-1.94.22-2.591.3.181 1.74.411 3.48.681 5.22-.2.53-.58 1.59-.78 2.12.18-10.47-.75-21.58 4.11-31.23 1.15-3.25 3.39-6.19 3.35-9.76-2.69-.81-3.14-3.63-4.22-5.8.26-.53.78-1.57 1.04-2.09-3.66-.2-7.19-1.58-10.87-1.03-2.75.51-4.67-1.66-6.47-3.31-2.83-.11-5.66-.36-8.48-.37 1.2.89 2.4 1.74 3.6 2.68-.85 1.97-3.38.99-4.97 1.44 1.7 1.54 3.68 2.93 4.73 5.06 2.02 3.72.12 8.23 2.06 11.99 2.59 5.45 2.7 11.53 3.41 17.41l1.29-.14c-.04-3.28.01-6.56.37-9.82.36 3.21.31 6.44.07 9.66-.49.24-1.45.72-1.93.96-.02 1.71.66 3.53.07 5.19-1.63 2.66-4.07 4.78-5.23 7.73 1.52-.96 2.97-2.02 4.5-3.02-4.72 7.3-11.23 13.21-17.27 19.38-.51.8-1.01 1.61-1.5 2.41.31-.86.92-2.59 1.229-3.45-1.529.63-3.04 1.28-4.529 1.94.64-5.27.05-10.96 2.29-15.87.76-3.15.12-6.73 1.96-9.54.529 4.33-1 10.46 3.18 13.27-.43-.72-1.28-2.17-1.7-2.89.64-3.16 1.549-6.25 2.84-9.2 1.87-5.22 5.72-9.61 6.2-15.31l2.16.48c.13-.4.38-1.22.5-1.62-2.13 1.05-4.27.12-5.92-1.3.96-.16 2.9-.5 3.86-.67-1.45-1.86-3.47-1.25-5.31-.69.31-.57.929-1.72 1.23-2.3-.71.12-2.14.35-2.85.47-4.61-.96-9.29-1.18-13.93-1.82 1.6-3.63 1.65-8.23-1.021-11.37-1.489-1.75-4.699-2.7-3.829-5.53-1.57-.65-3.131-1.25-4.69-1.85.04-1.6.07-3.2.11-4.8-.71.93-1.4 1.87-2.07 2.81-4-1.84-9.15-1.81-11.771-5.86-4.079.54-9.489.03-11.789 4.22-5.7 7.45-10.16 15.77-13.171 24.66 3.181-5.1 5.731-11.66 11.631-14.1-1.2 5.2-4.76 9.32-6.6 14.25 2.62-3.38 4.29-7.57 7.79-10.21 3.27-2.47 5.63-5.85 8.01-9.13-4 10.91-11.081 20.19-17.71 29.59.7-3.63.9-7.35.339-11.01-1.009 3.64-1.559 7.44-3.349 10.82-2.94 6-5.1 12.32-7.57 18.51-3.19 6.43-10.12 9.3-15.9 12.86-2.391 1.52-5.65 2.05-6.98 4.81 1.67-.36 3.41-.81 5.089-1.3-3.729 2-7.219 4.44-11.119 6.08 1.41-1.41 2.91-2.74 4.31-4.17-4.32 1.34-8.58 3.33-13.2 3.18-6.14-.03-12.781 1.24-18.4-1.9-3.27-2.3-6.06-5.29-8.39-8.51-3.07-5.13-.32-11.39 2.67-15.88 3.52-4.13 6.37-9.16 11.54-11.47 4.51-2.04 8.85-6.16 14.13-5.06.28-.52.86-1.56 1.15-2.08 1.41-.1 2.82-.2 4.269-.28-.159 1.98-.339 3.97-.399 5.96.899-.7 2.689-2.11 3.59-2.82-.18 1.28-.52 3.83-.691 5.1.721-.61 2.151-1.84 2.871-2.45-.19 1.07-.56 3.21-.75 4.29 5.22-5.34 8.77-12.65 8.25-20.24-.3-3.63-4.09-6.66-2.42-10.43-2.34-2.16-3.76-5.01-3.88-8.2-.65.7-1.34 1.41-1.93 2.13-.94-1.04-1.7-2.18-2.851-2.97-1.369-.08-2.699.14-4.029.02-.81-1.44-1.34-2.99-1.91-4.52-.87 2.01-2.69 3.15-4.58 4.02-.17-2.21-.231-4.42-.4-6.63-1.54 2.72-2.38 5.78-4.02 8.44-2.48 1.91-5.57 2.9-8.15 4.7-7.72 4.19-13.89 10.67-18.99 17.71 4.3-3.72 9.18-6.59 14.45-8.73-4.03 4.2-8.371 8.21-11.38 13.24-1.71 2.98-4.42 5.41-5.3 8.82-1.63 5.97-2.49 12.12-2.66 18.3l-.7-.03c.02-8.98.93-18.26 5.379-26.25-4.75 3.64-5.629 9.98-7.189 15.37-1.66 5.39.09 11.39-2.82 16.43-2.18 3.96-4.25 7.99-6.741 11.77.081-11.77 1.621-23.46 2.221-35.2.17-7.6 2.73-14.76 4.27-22.12.549.51 1.65 1.54 2.2 2.05 1.57-3.21-.3-6.27-2.57-8.49-2.73-1.1-5.01-3.24-5.43-6.26-1.61-1.17-3.21-2.33-4.81-3.47-1.11-.88-2.881-1.64-2.341-3.35 2.171-.84 4.431-1.42 6.641-2.18 1.37-1.35 2.81-2.62 4.23-3.93 2.6-1.87 2.22-5.42 2.98-8.19 1.16-3.03-1.67-5.29-3.31-7.41-.35.52-1.07 1.57-1.43 2.09-.39.04-1.19.11-1.58.14-.47-1.69-.74-3.46-1.54-5.03-2.031-2.41-5.32-2.69-8.25-2.58-1.39.86-2.77 1.69-4.19 2.48 1.199-1.07 2.43-2.08 3.72-3.07.07-.54.22-1.62.29-2.16 1.57.1 3.149.21 4.74.33-.551-.84-1.1-1.67-1.64-2.5-1.6-.27-3.19-.56-4.76-.82-.92 1.01-1.45 2.6-2.95 2.87-1.14-.77-2.241-1.56-3.32-2.38-.27 1.84-.51 3.68-.87 5.51-.63.08-1.89.25-2.52.34.84 2.42-1.33 3.07-3.08 3.82-1.4-1.34-2.83-2.71-4.73-3.26.779 2.09 1.84 4.06 2.73 6.1 1.44 2.89-.99 6.07.76 8.95 1.3.73 2.51 1.61 3.67 2.58-.95 1.01-1.881 2.03-2.79 3.06 2.69.92 5.48 1.46 8.35 1.33 2.21 1.24 4.65 2.06 6.72 3.58-.26.47-.8 1.4-1.06 1.87-3.87.73-7.91.48-11.72 1.5-3.2 1.76-1.24 5.85-1.56 8.73-.79 3.48-3.14 6.38-4.04 9.85.78-.95 2.35-2.83 3.14-3.78-.25 1.27-.75 3.8-1 5.06 2.57-3.23 4.079-7.1 6.13-10.65.44 3.23-.23 6.43-.81 9.59-3.63 1.25-7.07 2.9-10.18 5.18 1.59-1.88 3.189-3.74 4.6-5.78-3.61 2.18-7.15 5.22-11.621 5.1-2.809-.69-5.439-2.04-7.719-3.78-2.19-1.81-1.99-4.91-2.72-7.41-2.33-.89-1.101-3.19-1.07-4.94-7.241-1.22-12.93 4.82-16.84 10.1-2.1 2.48-1.47 5.8.01 8.41-2.42 4.84-3.96 10.04-6.06 15.02-.31-2.57-.51-5.16-.95-7.71-2.64 5.72 1.01 11.9-1 17.69-.04-7.32-1.151-14.73.24-21.99.859-4.42 1.02-9.05 3.01-13.18 1.44-3.85 4.67-6.57 6.66-10.1.41-.18 1.22-.54 1.63-.72-3.72-5.28-9.9-7.33-15.47-9.95.04.49.12 1.48.16 1.97-.47-.39-1.4-1.17-1.87-1.56-1.81.36-3.57.84-5.28 1.46.01-.62.019-1.86.03-2.48-3.39 2.58-4.91 6.68-7.46 9.95.17 2.11 1.15 4.75-1.69 5.48 2.639 5.3-3.361 9.84-2.3 14.99 2.08-2.31 4.01-4.76 6.06-7.11.48.29 1.45.88 1.94 1.18 1.95 7.8 3.439 15.71 3.05 23.79.55-1.67.97-3.39 1.43-5.09-.53 7.76 1.86 15.44.8 23.18-1.72-4.63-.74-9.79-2.61-14.34-.33 4.84.42 9.66.34 14.5 0 3.34-.8 6.63-.571 9.97.231 3-2.009 5.37-3.089 7.99.83 4.39 1.02 9.06 3.42 12.96 3.24-1.9 3.27 2.7 4.54 4.52 1.46-1.34 2.76-2.83 3.96-4.42-.01-1.08 0-2.16.03-3.24.82-.03 2.47-.09 3.29-.12 2.309-2.67 5.24-4.69 8.19-6.6.75.06 2.27.19 3.03.26.33-.53 1-1.57 1.339-2.1-1.889-2.05-4.189-3.63-6.199-5.52-1.31-1.93-1.02-4.46-1.29-6.67.11-6.34.81-12.67 2.17-18.87.39.06 1.17.17 1.56.23.04-.56.12-1.68.16-2.24 2.81-5.03 3.16-12.45 9.56-14.41-.36-.71-1.07-2.13-1.43-2.84.93-.85 1.91-1.69 2.86-2.55 3.04 4.11 6.59 7.9 10.57 11.13 2.95 2.48 6.94 2.01 10.48 1.52-.11-.3-.31-.92-.41-1.22 4.69-1.14 7.8-5.81 8.87-10.28-1.48 1.13-2.85 2.38-4.22 3.62 1.7-3.54 2.5-8.35 6.819-9.63 2.271 6.31 4.561 12.66 4.601 19.47.43-4.05.48-8.12.92-12.16.51 7.79 2.87 15.37 2.75 23.22.01 4.05.67 8.06.96 12.1.22 6.06 2.28 11.86 2.29 17.94-.28 3.85 3.69 7.35 7.46 6.36 3.26-1.03 4.71-4.51 5.98-7.38-1.81-6.62 1.84-13.67 8.01-16.47 1.33 2.25 2.37 4.66 3.69 6.92 3.31 6.22 9.48 10.17 15.4 13.61 4.24 2.65 9.36 1.99 14.12 2.35 3.29.09 6.72.45 9.89-.74 2.06-1.07 3.69-2.84 5.8-3.85 8.32-4.42 15.44-10.64 22.86-16.37-1.58 4.27 1.19 8.22 3.01 11.9 2.29 3.31 3.82 7.35 7.42 9.52.629.77 1.31 1.52 2.02 2.24 3.41-1.01 5.93-4.18 9.74-4.01 3.88-4.65 7.9-9.24 11.3-14.28-1.2.69-2.36 1.42-3.52 2.13 2.26-3.57 3.54-7.74 6.41-10.91 4.96-6.1 9.26-12.78 14.92-18.28-2.38 4.59-7.14 7.52-8.84 12.51-2.11 4.72-5.72 8.45-8.46 12.75 5.559-5.62 10.45-11.87 16.36-17.16-.42 4.29-.21 8.6.48 12.85-.12-4.55 1.219-8.98 2.91-13.16-.25 6.13-.21 12.26.68 18.35-1.13-1.27-2.17-2.59-3.17-3.94 1.25 4.71 3.31 9.14 5.64 13.4 2.39 4.39 7.49 6.72 12.36 6.72 1.68-2.99 3.4-5.97 4.36-9.3.07-1.25-.05-2.6.82-3.62 3.95-5.69 6.59-12.13 9.92-18.16 2.39-4.11 6.78-6.59 8.88-10.87.36 8.63.55 17.27 1.2 25.89.14 3.13.36 6.33-.32 9.42-.65.32-1.95.94-2.59 1.26 3.23 1.77 6.82 2.95 9.739 5.3 1.621 1.28 3.561 2.04 5.54 2.66.871.65 1.75 1.31 2.661 1.96-.05-.72-.14-2.15-.19-2.87 1.59-1.26.55-2.71-.16-4 .95-1.77 1.87-3.65 1.7-5.73-.17-5.36.85-10.64 1.56-15.93h-.58c-.73 2.99-1.61 5.94-2.55 8.87-1.11-1.18-1.35-2.46-.71-3.86 1.79-4.93 3.68-9.84 4.84-14.97 1.74-8.76 4.74-17.79 11.09-24.33.38 3.49 1.66 6.79 2.45 10.21 1.33 5.33 1.38 10.86 1.92 16.31.92-4.89.48-9.87 1.05-14.78 1.27 6.75 2.26 13.65 1.45 20.52-.83-.77-1.42-1.87-2.58-2.09-.21 6.34-.8 12.74.09 19.06.32 3.32 2.11 6.22 3.23 9.31-.23.99-.43 1.99-.6 2.99 1.66-.87 2.94-2.2 3.68-3.95.27.1.82.3 1.09.4 3.16-1.34 2.33 2.78 3.14 4.71.26-.88.78-2.63 1.05-3.51 1.9.9 3.73 2.62 5.99 2.26 2.1-2.76.76-7.11 3.31-9.68 5.38-5.36 10.02-11.4 15.51-16.65m-102.6 76.8c-4.15-.84-8.16-2.21-12.3-3.01-1.71 1.39-4.081 3.57-2.09 5.79 6.81-.22 13.59-.88 20.42-.59-.68-1.36-1.38-2.7-2.1-4.02-1.33.6-2.64 1.21-3.93 1.83m37.53 25.64c-4.46.49-8.94-.66-13.371.11-2.689-2.27-2.189-5.85-1.589-8.92 3.51-.78 7.049-.81 10.57-.1 1.44-.08 2.91-.12 4.39-.15 1.129 1.57 2.089 3.26 2.879 5.05-1.019 1.31-1.949 2.66-2.879 4.01m3.43-14.63c-7.46 1.16-15.2 1.32-22.58-.33-2.55.65-4.261 2.48-4.73 5.05 1.48 2.94 1.61 6.25 1.8 9.48-.31 1.63-.52 3.27-.68 4.93 2.3 1.36 4.91 1.38 7.47.8 3.74-1.08 7.64-.15 11.47-.34 3.67-.28 7.22 1.16 10.9.68.19-3.34-.6-6.6-.92-9.9.44-2.46 2.14-4.56 2.27-7.08-.63-2.1-2.99-3.21-5-3.29m-4.54-9.2c-2.62.05-5.22.26-7.801.47.461-2.07.911-4.13 1.391-6.19 2.1-.04 4.31-.35 6.35.46.24 1.74.09 3.5.06 5.26m6.25-10.52c-4.27-1.14-8.54 2.23-12.67.13.14-1.35.3-2.7.48-4.04 4.26-2 8.81-.6 13.23-.25 1.81-.07 5.86.07 4.93-2.89-2.5-3.29-7.21-.85-10.66-1.88.03.48.08 1.45.11 1.93-.87.06-2.6.18-3.46.23-.761-.91-1.37-2.43-2.86-2.15-3.71-.39-7.42-.51-11.13-.53-2.26 0-4.55-1.82-6.69-.38-2.94 1.2-4.9 3.96-4.62 7.2 4.57-.1 8.98-1.68 13.579-1.37-.009 1.62-.019 3.24-.049 4.86-2.52-.01-5.02-.2-7.491-.51-1.979 1.79-4.099 3.96-3.219 6.87 3.14-.91 6.3-1.79 9.55-2.31.25 1.38.51 2.77.73 4.17-1.3.78-2.561 1.57-3.8 2.38-3.99-.52-9.98-.96-11.43 3.9-1.24 2.03-.11 5.88 2.62 3.8 8.42-5.3 18.58-2.58 27.839-4.04 1.401-.4 2.661.27 3.761 1.12 2.85.83 5.48 2.22 8.199 3.4 2.091-.8 3.951-2.09 5.921-3.17.579-1.66 1.1-3.34 1.69-5-4.53-1.02-9.43-.05-13.77-1.39-.591-3.28 2.93-7.78-.79-10.08m-908.94-74.22c-1.37 1.86-2.97 3.86-2.88 6.31 2.02-1.29 2.15-4.19 2.88-6.31m481.16 84.89c7.93-.21 15.91 1.56 23.8-.1 1.58-.34 1.4-2.36.96-3.55-3.14-1.28-6.69-.9-9.991-1.36-5.149.44-10.279-.31-15.429-.19-.42-4.8.25-9.61.1-14.41-.21-4.72-8.07-4.58-8.9-.32-.76 3.09-.36 6.31.77 9.26-.24 1.9-.37 3.8-.46 5.72-6.02-.56-12.09-.47-18.081-1.35-4.429-.84-8.759 4.32-7.719 8.55 3.64.71 7.24-1.11 10.9-1.22 4.06-.16 8.03-1.14 12.1-1.16-2.93 5.2-9.19 6.45-13.34 10.33-5.68 2.15-11.43 4.23-17.22 6.11 1.18 2.66 2.92 5.7 6.23 5.79 5.64 1.44 10.24-2.64 15.03-4.84 4.58-2.83 7.769-7.33 11.91-10.71.04 7.24-.69 14.5-.08 21.73 1.57 2.59 5.62 2.36 7.74.54 1.84-2.53.02-5.61.44-8.38 1.11-4.99-.491-10.09.67-15.11 4.15 3.25 8.16 6.68 12.36 9.88 4.1 3.28 7.9 9.21 13.979 7.67 4.291-1.34 8.951-3.85 10.741-8.21-7.9-1.01-15.72-2.8-23.02-6.05-4.79-2.37-9.14-5.55-13.49-8.62m-15.12-9.78c-1.64-3.33-4.34-6.04-5.95-9.4-2.13-.52-4.92-.82-5.68 1.82-1.93 4.18 3.15 6.69 6.269 8 1.601.56 4.761 2 5.361-.42m-100.43 15.71c-3.91 1.94-8.34.45-12.46.44-.66-2.72-1.23-5.47-1.67-8.23 3.71-5.32 12.02-4.94 17.08-1.78-1.7 3.05.67 7.69-2.95 9.57m-1.76-16.11c-4.94-.94-10.1-.09-14.9-1.73-2.32-1.12-4.271 1.29-4.89 3.26-.96 5.51.28 11.18 2.4 16.3-.32 1.72-.74 3.58.08 5.25.68 1.54 2.55 1.81 3.91 2.56 3.86-4.9 10.31-1.99 15.52-3.04 2.83-.94 4.17 3.85 6.93 2.19 3.75-4.47 2.31-10.85 3.1-16.21.13-3.05 2.02-6.86-.76-9.28-3.38-3.25-7.54 1.75-11.39.7m-134.95 32.08c-6.66-.26-13.4.26-20.01-.79-2.12-.82-1.54-3.64-1.78-5.44-.05-1.96.6-4.23 2.91-4.46 6.64-1.51 13.54-.34 20.27-.07.36.3 1.08.88 1.44 1.17.69 3.39 1.34 8.19-2.83 9.59m6.26-17.59c-2.36 1.69-5.16 2.84-8.11 2.52-7.71.32-15.37-.91-23.06-.79-3.08-.44-5.84 2.94-4.43 5.76 1.5 3.98 1.7 8.29 1.9 12.5.05 1.15.01 2.7 1.32 3.23 2.65 1.81 5.52-.91 8.26-1.14 5.61-.69 11.34-1.03 16.97-.59 3.21-.16 4.8 3.93 8.03 3.19 1.63-.08 2.64-1.61 3.9-2.48-.16-3.11-.27-6.23-.3-9.33.75-3.27 1.53-6.55 1.71-9.91-1.43-2.17-3.6-3.23-6.19-2.96m-94.37-123.18c1.57-.49 1.29-3.29.86-4.59-1.28.67-1.51 3.29-.86 4.59m355.56 108.97c1.73-.93 3.85-1.78 4.54-3.81 1.1-2.46-1.99-5.54-4.44-4.42-4.23 2.18-6.98 6.29-9.09 10.42 2.56-.07 5.12-.37 7.68-.64.33-.39.98-1.16 1.31-1.55m-164.43 5.65c1.37-.97 3.02-1.17 4.66-1.32-.14.61-.41 1.84-.55 2.46.76.17 2.28.5 3.03.67.97-.68 1.94-1.35 2.93-2.02-.44-.97-.84-1.94-1.32-2.88-2.92-.41-5.87-.15-8.79-.28.21-2.21.44-4.42.61-6.62 2.65-1.11 5.73-1.18 8.18-2.72.69-1.91-1.241-3.71-1.75-5.49-4.26 1.67-8.31 4.06-12.89 4.77-4.99.92-10.07.24-15.09.26.13.33.39 1 .52 1.34 4.15 3.39 9.87 2.28 14.54 4.21-.17 1.37-.34 2.75-.5 4.13-4.39-.31-8.78-.38-13.17-.5-2.42 1.12-5.87 4.39-3.85 7.11 5.34 1.2 9.64-2.71 14.68-3.53.59.88 1.18 1.76 1.79 2.65-3.54 4.39-7.28 9.34-12.93 10.99-2.48.75-4.21 2.88-6.63 3.76-1.49.87-3.66 1.03-4.52 2.67 1.39 3.71 6.56 4.94 9.62 2.54 5.31-2.43 9.54-6.38 14.08-9.93 1.18 6.45.14 13.09 1.06 19.54.79 2.22 3.72.73 5.42.9 2.42-3.64 1.28-8.11-.84-11.58-1.24-1.55-.92-3.92 1.21-4.42.64-2.28 1.23-4.57 1.57-6.91 2.32 2.79 7.08 5.49 10.32 2.77-3.02-4.9-8.67-7.44-11.39-12.57m-107.56-9.43c2.87-.79 5.66-.1 7.92 1.81-2.29 4.29-4.16 9.5-8.92 11.63-2.86.19-5.72.42-8.55.78 1.5 4.8 8.31 5.85 12.62 4.39 8.05-2.24 11.18-10.88 13.74-17.96-.33-1.53.18-3.55-1.42-4.46-3.17-2.14-7.23-1.03-10.79-1.36-7.83 0-15.4-2.13-23.08-3.33-2.93 1.89-5.3 4.81-5.37 8.44 5.49.26 10.85-1.32 16.34-1.17-3.06 4.64-7.15 8.51-11.76 11.58-3.51 2.08-7.46 3.42-10.65 6.04 1.04.67 1.99 1.86 3.39 1.7 7.11.3 12.95-4.7 18.01-9.1 2.7-3.14 5.21-6.43 8.52-8.99m-40.25 12.16c.56.38 1.69 1.14 2.25 1.52-2.09 1.17-4.5.89-6.78.95-.64-2.23-1.3-4.45-2.11-6.62.55-1.83.66-3.88 1.8-5.47 1.82-1.72 4.41-.54 6.55-.27 1.12 1.48 1.98 3.15 3.02 4.71-1.09 2.14-2.89 3.7-4.73 5.18m.8 16.04c-2 .01-4.04.37-5.99-.05-.89-1.63-1.37-3.43-2.02-5.15.4-1.33.79-2.65 1.19-3.97 2.31-1.36 4.79-2.38 7.15-3.65-.09 1.75.49 3.34 1.42 4.81 1.74 2.7-.9 5.47-1.75 8.01m10.26-26.44c-.19-1.74-.03-3.57-.67-5.22-4.81-4.11-11.44 4.46-15.8-.33-2.98-.64-6.01-.93-9.05-.99-1.46 8.94 2.17 17.83.51 26.77.29.42.89 1.25 1.18 1.66-1.45 4.29-.87 9.47 2.33 12.84 2.66-1.05 5.38-2.1 8.24-2.5 3.01.67 6.04 1.26 9.13 1.57 1.07-1.38 2.54-2.69 2.25-4.63-.18-5.37-.13-10.75.61-16.09-1.01-4.38-.28-8.92 1.27-13.08" fill-rule="nonzero" transform="translate(1148.97 107.3399)"/></svg>